<svg width="108" height="108" viewBox="0 0 108 108" fill="none" xmlns="http://www.w3.org/2000/svg">
<path d="M0 54C0 39.6783 5.68927 25.9432 15.8162 15.8162C25.9432 5.68927 39.6783 0 54 0C68.3217 0 82.0568 5.68927 92.1838 15.8162C102.311 25.9432 108 39.6783 108 54C108 68.3217 102.311 82.0568 92.1838 92.1838C82.0568 102.311 68.3217 108 54 108C39.6783 108 25.9432 102.311 15.8162 92.1838C5.68927 82.0568 0 68.3217 0 54ZM39.852 35.0798C39.5407 34.7574 39.1683 34.5003 38.7565 34.3234C38.3447 34.1465 37.9019 34.0534 37.4537 34.0495C37.0056 34.0456 36.5612 34.131 36.1464 34.3007C35.7316 34.4704 35.3548 34.721 35.0379 35.0379C34.721 35.3548 34.4704 35.7316 34.3007 36.1464C34.131 36.5612 34.0456 37.0056 34.0495 37.4537C34.0534 37.9019 34.1465 38.3447 34.3234 38.7565C34.5003 39.1683 34.7574 39.5407 35.0798 39.852L62.7278 67.5H44.0438C43.1486 67.5 42.2902 67.8556 41.6573 68.4885C41.0243 69.1214 40.6688 69.9799 40.6688 70.875C40.6688 71.7701 41.0243 72.6286 41.6573 73.2615C42.2902 73.8944 43.1486 74.25 44.0438 74.25H70.875C71.7701 74.25 72.6286 73.8944 73.2615 73.2615C73.8944 72.6286 74.25 71.7701 74.25 70.875V44.0438C74.25 43.1486 73.8944 42.2902 73.2615 41.6573C72.6286 41.0243 71.7701 40.6688 70.875 40.6688C69.9799 40.6688 69.1214 41.0243 68.4885 41.6573C67.8556 42.2902 67.5 43.1486 67.5 44.0438V62.7278L39.852 35.0798Z" fill="#F2F4F5"/>
</svg>
