<svg width="51" height="51" viewBox="0 0 51 51" fill="none" xmlns="http://www.w3.org/2000/svg">
<path d="M25.5 0.0256348C11.7167 0.0256348 0.5 11.2423 0.5 25.0256C0.5 38.809 11.7167 50.0256 25.5 50.0256C39.2833 50.0256 50.5 38.809 50.5 25.0256C50.5 11.2423 39.2833 0.0256348 25.5 0.0256348ZM25.5 4.1923C37.0312 4.1923 46.3333 13.4944 46.3333 25.0256C46.3384 30.0131 44.55 34.836 41.2945 38.6144C38.0389 42.3927 33.5334 44.8745 28.6 45.6069V31.1006H34.5333L35.4646 25.0736H28.6V21.7819C28.6 19.2819 29.4229 17.059 31.7625 17.059H35.5229V11.8006C34.8625 11.7111 33.4646 11.5173 30.8229 11.5173C25.3062 11.5173 22.0729 14.4298 22.0729 21.0673V25.0736H16.4021V31.1006H22.0729V45.5548C17.2078 44.7541 12.7859 42.2496 9.59727 38.4889C6.40864 34.7281 4.66102 29.9562 4.66667 25.0256C4.66667 13.4944 13.9688 4.1923 25.5 4.1923Z" fill="#F2F4F5"/>
</svg>
