<svg width="104" height="103" viewBox="0 0 104 103" fill="none" xmlns="http://www.w3.org/2000/svg">
<path d="M13.897 20.9972V12.8012H16.662L17.073 9.59217H13.897V7.54817C13.897 6.62217 14.155 5.98817 15.484 5.98817H17.168V3.12717C16.3486 3.03936 15.525 2.99696 14.701 3.00017C12.257 3.00017 10.579 4.49217 10.579 7.23117V9.58617H7.832V12.7952H10.585V20.9972H13.897Z" fill="black"/>
<path d="M52 12.875C30.7048 12.875 13.375 30.2048 13.375 51.5C13.375 72.7952 30.7048 90.125 52 90.125C73.2952 90.125 90.625 72.7952 90.625 51.5C90.625 30.2048 73.2952 12.875 52 12.875ZM52 19.3125C69.8158 19.3125 84.1875 33.6842 84.1875 51.5C84.1953 59.2056 81.4322 66.6571 76.4024 72.4946C71.3727 78.3322 64.4116 82.1666 56.7895 83.298V60.8859H65.9565L67.3953 51.574H56.7895V46.4884C56.7895 42.6259 58.0609 39.1915 61.6756 39.1915H67.4854V31.0674C66.4651 30.929 64.3053 30.6296 60.2239 30.6296C51.7007 30.6296 46.7052 35.1294 46.7052 45.3844V51.574H37.9437V60.8859H46.7052V83.2176C39.1886 81.9804 32.3567 78.111 27.4303 72.3007C22.5038 66.4904 19.8038 59.1177 19.8125 51.5C19.8125 33.6842 34.1842 19.3125 52 19.3125Z" fill="#F2F4F5"/>
</svg>
