<svg width="104" height="103" viewBox="0 0 104 103" fill="none" xmlns="http://www.w3.org/2000/svg">
<path fill-rule="evenodd" clip-rule="evenodd" d="M52.1116 8.5835C28.4688 8.5835 9.30649 27.7458 9.30649 51.3886C9.30649 70.2977 21.5678 86.3442 38.5799 92.0092C40.7215 92.3954 41.494 91.0779 41.494 89.9449C41.494 88.9278 41.4597 86.2326 41.4468 82.6662C29.5374 85.2498 27.0225 76.924 27.0225 76.924C25.0827 71.98 22.2716 70.6625 22.2716 70.6625C18.3877 68.0059 22.5677 68.066 22.5677 68.066C26.868 68.3664 29.1211 72.4778 29.1211 72.4778C32.9407 79.0183 39.1464 77.13 41.5755 76.0356C41.9661 73.2675 43.0819 71.3792 44.3007 70.3105C34.799 69.2333 24.808 65.5597 24.808 49.1526C24.808 44.4876 26.4774 40.6594 29.2027 37.6724C28.7692 36.5866 27.2886 32.2306 29.6275 26.3424C29.6275 26.3424 33.2197 25.188 41.3953 30.7242C44.887 29.7743 48.4887 29.2895 52.1073 29.2822C55.7259 29.2881 59.3279 29.773 62.8193 30.7242C70.9992 25.1837 74.587 26.3424 74.587 26.3424C76.926 32.2306 75.4582 36.5866 75.0119 37.6724C77.7586 40.6594 79.4066 44.4833 79.4066 49.1526C79.4066 65.6026 69.407 69.2162 59.8709 70.2762C61.3944 71.598 62.7678 74.2074 62.7678 78.1986C62.7678 83.9237 62.7163 88.5415 62.7163 89.9449C62.7163 91.0908 63.4802 92.4212 65.6647 92.0006C82.6682 86.327 94.9167 70.2934 94.9167 51.3886C94.9167 27.7458 75.7544 8.5835 52.1116 8.5835Z" fill="#F2F4F5"/>
</svg>
