<svg width="51" height="51" viewBox="0 0 51 51" fill="none" xmlns="http://www.w3.org/2000/svg">
<path fill-rule="evenodd" clip-rule="evenodd" d="M16.0521 2.24639C18.4959 2.13389 19.275 2.10889 25.5 2.10889C31.725 2.10889 32.5042 2.13597 34.9459 2.24639C37.3875 2.3568 39.0542 2.74639 40.5125 3.31097C42.0396 3.88805 43.425 4.79014 44.5709 5.9568C45.7375 7.10055 46.6375 8.48389 47.2125 10.0131C47.7792 11.4714 48.1667 13.1381 48.2792 15.5756C48.3917 18.0235 48.4167 18.8026 48.4167 25.0256C48.4167 31.2506 48.3896 32.0297 48.2792 34.4735C48.1688 36.911 47.7792 38.5776 47.2125 40.036C46.6375 41.5653 45.736 42.951 44.5709 44.0964C43.425 45.2631 42.0396 46.1631 40.5125 46.7381C39.0542 47.3047 37.3875 47.6922 34.95 47.8047C32.5042 47.9172 31.725 47.9422 25.5 47.9422C19.275 47.9422 18.4959 47.9151 16.0521 47.8047C13.6146 47.6943 11.948 47.3047 10.4896 46.7381C8.96029 46.163 7.57467 45.2615 6.42921 44.0964C5.26333 42.9519 4.36111 41.567 3.78546 40.0381C3.22087 38.5797 2.83337 36.9131 2.72087 34.4756C2.60837 32.0276 2.58337 31.2485 2.58337 25.0256C2.58337 18.8006 2.61046 18.0214 2.72087 15.5797C2.83129 13.1381 3.22087 11.4714 3.78546 10.0131C4.36196 8.48406 5.26487 7.09912 6.43129 5.95472C7.57512 4.7891 8.95936 3.88689 10.4875 3.31097C11.9459 2.74639 13.6125 2.35889 16.05 2.24639H16.0521ZM34.7605 6.37139C32.3438 6.26097 31.6188 6.23805 25.5 6.23805C19.3813 6.23805 18.6563 6.26097 16.2396 6.37139C14.0042 6.47347 12.7917 6.84639 11.9834 7.16097C10.9146 7.57764 10.15 8.07139 9.34796 8.87347C8.58763 9.61316 8.0025 10.5136 7.63546 11.5089C7.32087 12.3172 6.94796 13.5297 6.84587 15.7651C6.73546 18.1818 6.71254 18.9068 6.71254 25.0256C6.71254 31.1443 6.73546 31.8693 6.84587 34.286C6.94796 36.5214 7.32087 37.7339 7.63546 38.5422C8.00212 39.536 8.58754 40.4381 9.34796 41.1776C10.0875 41.9381 10.9896 42.5235 11.9834 42.8901C12.7917 43.2047 14.0042 43.5776 16.2396 43.6797C18.6563 43.7901 19.3792 43.8131 25.5 43.8131C31.6209 43.8131 32.3438 43.7901 34.7605 43.6797C36.9959 43.5776 38.2084 43.2047 39.0167 42.8901C40.0855 42.4735 40.85 41.9797 41.6521 41.1776C42.4125 40.4381 42.998 39.536 43.3646 38.5422C43.6792 37.7339 44.0521 36.5214 44.1542 34.286C44.2646 31.8693 44.2875 31.1443 44.2875 25.0256C44.2875 18.9068 44.2646 18.1818 44.1542 15.7651C44.0521 13.5297 43.6792 12.3172 43.3646 11.5089C42.948 10.4401 42.4542 9.67555 41.6521 8.87347C40.9124 8.1132 40.0119 7.52808 39.0167 7.16097C38.2084 6.84639 36.9959 6.47347 34.7605 6.37139V6.37139ZM22.573 32.0901C24.2077 32.7706 26.0279 32.8625 27.7228 32.35C29.4177 31.8375 30.8821 30.7525 31.8659 29.2802C32.8497 27.808 33.2918 26.0399 33.1168 24.2779C32.9418 22.5158 32.1605 20.8692 30.9063 19.6193C30.1068 18.8203 29.1401 18.2085 28.0757 17.8279C27.0114 17.4474 25.8759 17.3076 24.7511 17.4185C23.6262 17.5295 22.5399 17.8884 21.5705 18.4696C20.601 19.0507 19.7724 19.8396 19.1444 20.7794C18.5164 21.7192 18.1046 22.7866 17.9386 23.9046C17.7726 25.0227 17.8566 26.1637 18.1845 27.2454C18.5124 28.3271 19.076 29.3227 19.8349 30.1604C20.5937 30.9981 21.5288 31.6572 22.573 32.0901ZM17.1709 16.6964C18.2647 15.6026 19.5632 14.7349 20.9923 14.143C22.4214 13.551 23.9532 13.2463 25.5 13.2463C27.0469 13.2463 28.5786 13.551 30.0078 14.143C31.4369 14.7349 32.7354 15.6026 33.8292 16.6964C34.923 17.7902 35.7907 19.0887 36.3826 20.5178C36.9746 21.947 37.2793 23.4787 37.2793 25.0256C37.2793 26.5724 36.9746 28.1041 36.3826 29.5333C35.7907 30.9624 34.923 32.2609 33.8292 33.3547C31.6202 35.5638 28.6241 36.8048 25.5 36.8048C22.376 36.8048 19.3799 35.5638 17.1709 33.3547C14.9618 31.1457 13.7208 28.1496 13.7208 25.0256C13.7208 21.9015 14.9618 18.9054 17.1709 16.6964V16.6964ZM39.8917 15.0006C40.1628 14.7449 40.3798 14.4374 40.5298 14.0963C40.6799 13.7553 40.7601 13.3876 40.7655 13.015C40.7709 12.6424 40.7015 12.2725 40.5615 11.9272C40.4214 11.582 40.2134 11.2683 39.95 11.0048C39.6865 10.7413 39.3728 10.5334 39.0275 10.3933C38.6822 10.2532 38.3123 10.1838 37.9398 10.1893C37.5672 10.1947 37.1995 10.2748 36.8584 10.4249C36.5174 10.575 36.2099 10.792 35.9542 11.0631C35.4569 11.5902 35.1847 12.2904 35.1953 13.015C35.2058 13.7396 35.4984 14.4316 36.0108 14.944C36.5232 15.4564 37.2152 15.7489 37.9398 15.7595C38.6644 15.7701 39.3646 15.4978 39.8917 15.0006V15.0006Z" fill="#F2F4F5"/>
</svg>
