<svg width="150" height="150" viewBox="0 0 150 150" fill="none" xmlns="http://www.w3.org/2000/svg">
<path fill-rule="evenodd" clip-rule="evenodd" d="M75.0001 9.375C76.2433 9.375 77.4355 9.86886 78.3146 10.7479C79.1937 11.627 79.6876 12.8193 79.6876 14.0625V124.622L109.181 95.1187C110.061 94.2386 111.255 93.7441 112.5 93.7441C113.745 93.7441 114.939 94.2386 115.819 95.1187C116.699 95.9989 117.193 97.1927 117.193 98.4375C117.193 99.6823 116.699 100.876 115.819 101.756L78.3188 139.256C77.8834 139.693 77.3661 140.039 76.7966 140.275C76.2271 140.512 75.6166 140.633 75.0001 140.633C74.3835 140.633 73.773 140.512 73.2035 140.275C72.634 140.039 72.1167 139.693 71.6813 139.256L34.1813 101.756C33.3011 100.876 32.8066 99.6823 32.8066 98.4375C32.8066 97.1927 33.3011 95.9989 34.1813 95.1187C35.0615 94.2386 36.2553 93.7441 37.5001 93.7441C38.7448 93.7441 39.9386 94.2386 40.8188 95.1187L70.3126 124.622V14.0625C70.3126 12.8193 70.8064 11.627 71.6855 10.7479C72.5646 9.86886 73.7569 9.375 75.0001 9.375V9.375Z" fill="#F2F4F5"/>
</svg>
