<svg width="104" height="103" viewBox="0 0 104 103" fill="none" xmlns="http://www.w3.org/2000/svg">
<path d="M52 85.8335C61.1058 85.8335 69.8386 82.2163 76.2773 75.7775C82.7161 69.3388 86.3333 60.6059 86.3333 51.5002C86.3333 42.3944 82.7161 33.6616 76.2773 27.2228C69.8386 20.7841 61.1058 17.1668 52 17.1668C42.8942 17.1668 34.1614 20.7841 27.7226 27.2228C21.2839 33.6616 17.6666 42.3944 17.6666 51.5002C17.6666 60.6059 21.2839 69.3388 27.7226 75.7775C34.1614 82.2163 42.8942 85.8335 52 85.8335ZM52 94.4168C28.2971 94.4168 9.08331 75.203 9.08331 51.5002C9.08331 27.7973 28.2971 8.5835 52 8.5835C75.7029 8.5835 94.9167 27.7973 94.9167 51.5002C94.9167 75.203 75.7029 94.4168 52 94.4168Z" fill="#F2F4F5"/>
<path d="M73.4583 38.3977C71.879 39.0844 70.1838 39.5565 68.4027 39.7625C70.2224 38.6896 71.6129 36.9901 72.2738 34.9687C70.5398 35.9792 68.6478 36.6902 66.6775 37.0716C65.8486 36.2029 64.8515 35.5121 63.747 35.0413C62.6424 34.5706 61.4535 34.3297 60.2528 34.3335C55.3904 34.3335 51.4506 38.2175 51.4506 43.0027C51.4506 43.6808 51.5279 44.3417 51.6781 44.9769C48.1904 44.8113 44.7755 43.9205 41.6512 42.3613C38.527 40.8022 35.7621 38.6089 33.5329 35.9215C32.75 37.2394 32.3377 38.7445 32.3398 40.2775C32.3398 43.2817 33.8977 45.9425 36.2581 47.4918C34.861 47.448 33.4937 47.076 32.2669 46.406V46.5133C32.2801 48.5281 32.9913 50.476 34.2793 52.0253C35.5673 53.5747 37.3525 54.6297 39.331 55.0108C38.0321 55.3542 36.6731 55.4041 35.3526 55.1567C35.9282 56.89 37.0292 58.401 38.5028 59.48C39.9763 60.559 41.7492 61.1525 43.5754 61.1779C40.4423 63.5922 36.5956 64.8966 32.6403 64.8859C31.9321 64.8859 31.2326 64.843 30.5416 64.7658C34.5778 67.3205 39.2578 68.6736 44.0346 68.6669C60.2314 68.6669 69.0851 55.4571 69.0851 43.9984L69.055 42.874C70.7816 41.6606 72.2735 40.144 73.4583 38.3977Z" fill="#F2F4F5"/>
</svg>
