<svg width="585" height="425" viewBox="0 0 585 425" fill="none" xmlns="http://www.w3.org/2000/svg">
<g clip-path="url(#clip0_6_224)">
<path d="M548.184 69.7446H110.939C90.6062 69.7446 74.1232 86.2556 74.1232 106.623V360.916C74.1232 381.284 90.6062 397.795 110.939 397.795H548.184C568.517 397.795 585 381.284 585 360.916V106.623C585 86.2556 568.517 69.7446 548.184 69.7446Z" fill="#ABBCD3"/>
<path d="M533.974 5.46362H78.6279C67.1158 5.46362 57.7833 14.8119 57.7833 26.3437V350.374C57.7833 361.906 67.1158 371.254 78.6279 371.254H533.974C545.486 371.254 554.818 361.906 554.818 350.374V26.3437C554.818 14.8119 545.486 5.46362 533.974 5.46362Z" fill="#4C5389"/>
<path d="M57.7833 201.998H554.777V357.06C554.777 358.928 554.41 360.777 553.695 362.501C552.98 364.226 551.933 365.793 550.613 367.111C549.293 368.43 547.726 369.474 546.002 370.185C544.278 370.896 542.431 371.259 540.567 371.254H71.9527C68.1948 371.254 64.5907 369.759 61.9334 367.097C59.2762 364.435 57.7833 360.825 57.7833 357.06V201.998Z" fill="#2E3A6D"/>
<path d="M309.516 5.34055L238.3 371.377H209.101L280.358 5.34055H309.516Z" fill="#3B447A"/>
<path d="M445.026 5.09442L374.179 371.131H306.28L377.537 5.09442H445.026Z" fill="#3B447A"/>
<path d="M495.847 5.09442L424.591 371.131H395.433L466.689 5.09442H495.847Z" fill="#3B447A"/>
<path d="M97.4659 312.265C96.0865 312.265 94.7636 311.716 93.7883 310.739C92.8129 309.762 92.265 308.437 92.265 307.055V111.505C92.265 110.123 92.8129 108.798 93.7883 107.821C94.7636 106.844 96.0865 106.295 97.4659 106.295C98.8452 106.295 100.168 106.844 101.143 107.821C102.119 108.798 102.667 110.123 102.667 111.505V306.932C102.683 307.626 102.561 308.317 102.307 308.963C102.053 309.61 101.672 310.199 101.188 310.696C100.703 311.192 100.124 311.587 99.485 311.857C98.8458 312.126 98.1593 312.265 97.4659 312.265Z" fill="#6773BA"/>
<path d="M290.104 107.649H122.488C121.173 107.649 119.913 107.126 118.984 106.195C118.054 105.264 117.532 104.001 117.532 102.685C117.532 101.369 118.054 100.106 118.984 99.1752C119.913 98.2443 121.173 97.7214 122.488 97.7214H290.104C291.418 97.7214 292.679 98.2443 293.608 99.1752C294.537 100.106 295.059 101.369 295.059 102.685C295.059 104.001 294.537 105.264 293.608 106.195C292.679 107.126 291.418 107.649 290.104 107.649Z" fill="#61FC54"/>
<path d="M229.823 129.021H122.488C121.173 129.021 119.913 128.498 118.984 127.567C118.054 126.636 117.532 125.374 117.532 124.057C117.532 122.741 118.054 121.478 118.984 120.547C119.913 119.617 121.173 119.094 122.488 119.094H229.823C231.137 119.094 232.397 119.617 233.327 120.547C234.256 121.478 234.778 122.741 234.778 124.057C234.778 125.374 234.256 126.636 233.327 127.567C232.397 128.498 231.137 129.021 229.823 129.021Z" fill="#F70D67"/>
<path d="M187.192 151.46H122.488C121.173 151.46 119.913 150.937 118.984 150.006C118.054 149.075 117.532 147.813 117.532 146.496C117.532 145.18 118.054 143.917 118.984 142.986C119.913 142.055 121.173 141.533 122.488 141.533H187.192C188.506 141.533 189.766 142.055 190.696 142.986C191.625 143.917 192.147 145.18 192.147 146.496C192.147 147.813 191.625 149.075 190.696 150.006C189.766 150.937 188.506 151.46 187.192 151.46Z" fill="#859CFF"/>
<path d="M223.189 151.46H206.275C204.961 151.46 203.701 150.937 202.772 150.006C201.842 149.075 201.32 147.813 201.32 146.496C201.32 145.18 201.842 143.917 202.772 142.986C203.701 142.055 204.961 141.533 206.275 141.533H223.189C224.503 141.533 225.763 142.055 226.692 142.986C227.622 143.917 228.144 145.18 228.144 146.496C228.144 147.813 227.622 149.075 226.692 150.006C225.763 150.937 224.503 151.46 223.189 151.46Z" fill="#859CFF"/>
<path d="M269.997 151.46H246.982C245.668 151.46 244.407 150.937 243.478 150.006C242.549 149.075 242.027 147.813 242.027 146.496C242.027 145.18 242.549 143.917 243.478 142.986C244.407 142.055 245.668 141.533 246.982 141.533H269.997C271.311 141.533 272.571 142.055 273.501 142.986C274.43 143.917 274.952 145.18 274.952 146.496C274.952 147.813 274.43 149.075 273.501 150.006C272.571 150.937 271.311 151.46 269.997 151.46Z" fill="#859CFF"/>
<path d="M290.104 193.056H122.488C121.173 193.056 119.913 192.533 118.984 191.602C118.054 190.671 117.532 189.409 117.532 188.092C117.532 186.776 118.054 185.513 118.984 184.582C119.913 183.651 121.173 183.128 122.488 183.128H290.104C291.418 183.128 292.679 183.651 293.608 184.582C294.537 185.513 295.059 186.776 295.059 188.092C295.059 189.409 294.537 190.671 293.608 191.602C292.679 192.533 291.418 193.056 290.104 193.056Z" fill="#61FC54"/>
<path d="M229.823 214.428H122.488C121.173 214.428 119.913 213.905 118.984 212.974C118.054 212.043 117.532 210.781 117.532 209.464C117.532 208.148 118.054 206.885 118.984 205.955C119.913 205.024 121.173 204.501 122.488 204.501H229.823C231.137 204.501 232.397 205.024 233.327 205.955C234.256 206.885 234.778 208.148 234.778 209.464C234.778 210.781 234.256 212.043 233.327 212.974C232.397 213.905 231.137 214.428 229.823 214.428Z" fill="#F70D67"/>
<path d="M187.192 236.908H122.488C121.173 236.908 119.913 236.385 118.984 235.454C118.054 234.523 117.532 233.261 117.532 231.944C117.532 230.628 118.054 229.365 118.984 228.434C119.913 227.504 121.173 226.981 122.488 226.981H187.192C188.506 226.981 189.766 227.504 190.696 228.434C191.625 229.365 192.147 230.628 192.147 231.944C192.147 233.261 191.625 234.523 190.696 235.454C189.766 236.385 188.506 236.908 187.192 236.908Z" fill="#859CFF"/>
<path d="M223.189 236.908H206.275C204.961 236.908 203.701 236.385 202.772 235.454C201.842 234.523 201.32 233.261 201.32 231.944C201.32 230.628 201.842 229.365 202.772 228.434C203.701 227.504 204.961 226.981 206.275 226.981H223.189C224.503 226.981 225.763 227.504 226.692 228.434C227.622 229.365 228.144 230.628 228.144 231.944C228.144 233.261 227.622 234.523 226.692 235.454C225.763 236.385 224.503 236.908 223.189 236.908Z" fill="#859CFF"/>
<path d="M269.997 236.908H246.982C245.668 236.908 244.407 236.385 243.478 235.454C242.549 234.523 242.027 233.261 242.027 231.944C242.027 230.628 242.549 229.365 243.478 228.434C244.407 227.504 245.668 226.981 246.982 226.981H269.997C271.311 226.981 272.571 227.504 273.501 228.434C274.43 229.365 274.952 230.628 274.952 231.944C274.952 233.261 274.43 234.523 273.501 235.454C272.571 236.385 271.311 236.908 269.997 236.908Z" fill="#859CFF"/>
<path d="M290.104 172.504H122.488C121.108 172.504 119.785 171.955 118.81 170.978C117.835 170.001 117.287 168.676 117.287 167.294C117.287 165.912 117.835 164.587 118.81 163.61C119.785 162.633 121.108 162.084 122.488 162.084H290.104C291.484 162.084 292.806 162.633 293.782 163.61C294.757 164.587 295.305 165.912 295.305 167.294C295.305 168.676 294.757 170.001 293.782 170.978C292.806 171.955 291.484 172.504 290.104 172.504Z" fill="#6773BA"/>
<path d="M290.104 257.952H122.488C121.108 257.952 119.785 257.403 118.81 256.426C117.835 255.449 117.287 254.124 117.287 252.742C117.287 251.361 117.835 250.035 118.81 249.058C119.785 248.081 121.108 247.533 122.488 247.533H290.104C291.484 247.533 292.806 248.081 293.782 249.058C294.757 250.035 295.305 251.361 295.305 252.742C295.305 254.124 294.757 255.449 293.782 256.426C292.806 257.403 291.484 257.952 290.104 257.952Z" fill="#6773BA"/>
<path d="M290.104 278.504H122.488C121.173 278.504 119.913 277.981 118.984 277.05C118.054 276.119 117.532 274.857 117.532 273.54C117.532 272.224 118.054 270.961 118.984 270.03C119.913 269.1 121.173 268.577 122.488 268.577H290.104C291.418 268.577 292.679 269.1 293.608 270.03C294.537 270.961 295.059 272.224 295.059 273.54C295.059 274.857 294.537 276.119 293.608 277.05C292.679 277.981 291.418 278.504 290.104 278.504Z" fill="#61FC54"/>
<path d="M229.823 299.958H122.488C121.173 299.958 119.913 299.435 118.984 298.504C118.054 297.574 117.532 296.311 117.532 294.995C117.532 293.678 118.054 292.416 118.984 291.485C119.913 290.554 121.173 290.031 122.488 290.031H229.823C231.137 290.031 232.397 290.554 233.327 291.485C234.256 292.416 234.778 293.678 234.778 294.995C234.778 296.311 234.256 297.574 233.327 298.504C232.397 299.435 231.137 299.958 229.823 299.958Z" fill="#F70D67"/>
<path d="M187.192 322.315H122.488C121.837 322.315 121.192 322.187 120.591 321.937C119.99 321.688 119.444 321.322 118.984 320.861C118.524 320.4 118.159 319.853 117.91 319.251C117.661 318.649 117.532 318.003 117.532 317.351C117.532 316.7 117.661 316.054 117.91 315.452C118.159 314.85 118.524 314.302 118.984 313.842C119.444 313.381 119.99 313.015 120.591 312.766C121.192 312.516 121.837 312.388 122.488 312.388H187.192C187.842 312.388 188.487 312.516 189.088 312.766C189.689 313.015 190.235 313.381 190.696 313.842C191.156 314.302 191.521 314.85 191.77 315.452C192.019 316.054 192.147 316.7 192.147 317.351C192.147 318.003 192.019 318.649 191.77 319.251C191.521 319.853 191.156 320.4 190.696 320.861C190.235 321.322 189.689 321.688 189.088 321.937C188.487 322.187 187.842 322.315 187.192 322.315Z" fill="#859CFF"/>
<path d="M223.189 322.315H206.275C205.625 322.315 204.98 322.187 204.379 321.937C203.778 321.688 203.232 321.322 202.772 320.861C202.311 320.4 201.946 319.853 201.697 319.251C201.448 318.649 201.32 318.003 201.32 317.351C201.32 316.7 201.448 316.054 201.697 315.452C201.946 314.85 202.311 314.302 202.772 313.842C203.232 313.381 203.778 313.015 204.379 312.766C204.98 312.516 205.625 312.388 206.275 312.388H223.189C223.839 312.388 224.484 312.516 225.085 312.766C225.686 313.015 226.232 313.381 226.692 313.842C227.153 314.302 227.518 314.85 227.767 315.452C228.016 316.054 228.144 316.7 228.144 317.351C228.144 318.003 228.016 318.649 227.767 319.251C227.518 319.853 227.153 320.4 226.692 320.861C226.232 321.322 225.686 321.688 225.085 321.937C224.484 322.187 223.839 322.315 223.189 322.315Z" fill="#859CFF"/>
<path d="M269.997 322.315H246.982C246.331 322.315 245.687 322.187 245.086 321.937C244.484 321.688 243.938 321.322 243.478 320.861C243.018 320.4 242.653 319.853 242.404 319.251C242.155 318.649 242.027 318.003 242.027 317.351C242.027 316.7 242.155 316.054 242.404 315.452C242.653 314.85 243.018 314.302 243.478 313.842C243.938 313.381 244.484 313.015 245.086 312.766C245.687 312.516 246.331 312.388 246.982 312.388H269.997C270.648 312.388 271.292 312.516 271.893 312.766C272.494 313.015 273.041 313.381 273.501 313.842C273.961 314.302 274.326 314.85 274.575 315.452C274.824 316.054 274.952 316.7 274.952 317.351C274.952 318.003 274.824 318.649 274.575 319.251C274.326 319.853 273.961 320.4 273.501 320.861C273.041 321.322 272.494 321.688 271.893 321.937C271.292 322.187 270.648 322.315 269.997 322.315Z" fill="#859CFF"/>
<path d="M513.989 297.579H427.99C427.284 297.579 426.607 297.298 426.108 296.798C425.608 296.298 425.328 295.62 425.328 294.913C425.328 294.205 425.608 293.527 426.108 293.027C426.607 292.527 427.284 292.246 427.99 292.246H513.989C514.695 292.246 515.372 292.527 515.871 293.027C516.371 293.527 516.651 294.205 516.651 294.913C516.651 295.62 516.371 296.298 515.871 296.798C515.372 297.298 514.695 297.579 513.989 297.579Z" fill="#60FC54"/>
<path d="M483.234 308.532H428.072C427.366 308.532 426.689 308.251 426.19 307.751C425.69 307.251 425.41 306.573 425.41 305.865C425.41 305.154 425.689 304.472 426.187 303.965C426.685 303.459 427.362 303.169 428.072 303.158H483.234C483.944 303.169 484.621 303.459 485.119 303.965C485.617 304.472 485.896 305.154 485.896 305.865C485.896 306.573 485.616 307.251 485.116 307.751C484.617 308.251 483.94 308.532 483.234 308.532Z" fill="#60FC54"/>
<path d="M461.243 320.059H428.072C427.362 320.048 426.685 319.758 426.187 319.251C425.689 318.745 425.41 318.062 425.41 317.351C425.41 317.001 425.479 316.655 425.612 316.331C425.746 316.008 425.942 315.714 426.19 315.466C426.437 315.218 426.73 315.022 427.053 314.888C427.376 314.754 427.722 314.685 428.072 314.685H461.243C461.592 314.685 461.939 314.754 462.262 314.888C462.585 315.022 462.878 315.218 463.125 315.466C463.372 315.714 463.568 316.008 463.702 316.331C463.836 316.655 463.905 317.001 463.905 317.351C463.905 318.062 463.626 318.745 463.128 319.251C462.63 319.758 461.953 320.048 461.243 320.059Z" fill="#60FC54"/>
<path d="M479.712 320.059H470.949C470.239 320.048 469.562 319.758 469.064 319.251C468.566 318.745 468.287 318.062 468.287 317.351C468.287 317.001 468.355 316.655 468.489 316.331C468.623 316.008 468.819 315.714 469.066 315.466C469.313 315.218 469.607 315.022 469.93 314.888C470.253 314.754 470.599 314.685 470.949 314.685H479.63C479.98 314.685 480.326 314.754 480.649 314.888C480.972 315.022 481.265 315.218 481.513 315.466C481.76 315.714 481.956 316.008 482.09 316.331C482.223 316.655 482.292 317.001 482.292 317.351C482.293 318.049 482.025 318.719 481.545 319.224C481.064 319.728 480.408 320.027 479.712 320.059Z" fill="#60FC54"/>
<path d="M503.71 320.059H491.916C491.199 320.059 490.512 319.774 490.005 319.266C489.498 318.758 489.213 318.069 489.213 317.351C489.213 316.998 489.283 316.648 489.42 316.321C489.556 315.995 489.756 315.699 490.007 315.451C490.259 315.203 490.557 315.008 490.885 314.876C491.212 314.745 491.563 314.68 491.916 314.685H503.71C504.06 314.685 504.406 314.754 504.729 314.888C505.052 315.022 505.345 315.218 505.592 315.466C505.84 315.714 506.036 316.008 506.169 316.331C506.303 316.655 506.372 317.001 506.372 317.351C506.372 318.062 506.093 318.745 505.595 319.251C505.097 319.758 504.42 320.048 503.71 320.059Z" fill="#60FC54"/>
<path d="M513.989 248.886H427.99C427.284 248.886 426.607 248.605 426.108 248.105C425.608 247.605 425.328 246.927 425.328 246.22C425.328 245.513 425.608 244.834 426.108 244.334C426.607 243.834 427.284 243.553 427.99 243.553H513.989C514.695 243.553 515.372 243.834 515.871 244.334C516.371 244.834 516.651 245.513 516.651 246.22C516.651 246.927 516.371 247.605 515.871 248.105C515.372 248.605 514.695 248.886 513.989 248.886Z" fill="#60FC54"/>
<path d="M483.234 259.839H428.072C427.366 259.839 426.689 259.558 426.19 259.058C425.69 258.558 425.41 257.88 425.41 257.173C425.41 256.465 425.69 255.787 426.19 255.287C426.689 254.787 427.366 254.506 428.072 254.506H483.234C483.94 254.506 484.617 254.787 485.116 255.287C485.616 255.787 485.896 256.465 485.896 257.173C485.896 257.88 485.616 258.558 485.116 259.058C484.617 259.558 483.94 259.839 483.234 259.839Z" fill="#60FC54"/>
<path d="M461.243 271.243H428.072C427.366 271.243 426.689 270.962 426.19 270.462C425.69 269.962 425.41 269.284 425.41 268.577C425.41 267.866 425.689 267.183 426.187 266.677C426.685 266.17 427.362 265.88 428.072 265.869H461.243C461.953 265.88 462.63 266.17 463.128 266.677C463.626 267.183 463.905 267.866 463.905 268.577C463.905 269.284 463.624 269.962 463.125 270.462C462.626 270.962 461.949 271.243 461.243 271.243Z" fill="#60FC54"/>
<path d="M479.712 271.243H470.949C470.243 271.243 469.565 270.962 469.066 270.462C468.567 269.962 468.287 269.284 468.287 268.577C468.287 267.866 468.566 267.183 469.064 266.677C469.562 266.17 470.239 265.88 470.949 265.869H479.63C480.34 265.88 481.017 266.17 481.515 266.677C482.013 267.183 482.292 267.866 482.292 268.577C482.293 269.27 482.023 269.936 481.542 270.434C481.06 270.931 480.404 271.222 479.712 271.243Z" fill="#60FC54"/>
<path d="M503.71 271.243H491.916C491.563 271.248 491.212 271.184 490.885 271.052C490.557 270.92 490.259 270.725 490.007 270.477C489.756 270.229 489.556 269.933 489.42 269.607C489.283 269.28 489.213 268.93 489.213 268.577C489.213 267.859 489.498 267.17 490.005 266.662C490.512 266.154 491.199 265.869 491.916 265.869H503.71C504.42 265.88 505.097 266.17 505.595 266.677C506.093 267.183 506.372 267.866 506.372 268.577C506.372 269.284 506.092 269.962 505.592 270.462C505.093 270.962 504.416 271.243 503.71 271.243Z" fill="#60FC54"/>
<path d="M513.989 151.542H427.99C427.284 151.542 426.607 151.261 426.108 150.761C425.608 150.261 425.328 149.583 425.328 148.875C425.328 148.168 425.608 147.49 426.108 146.99C426.607 146.49 427.284 146.209 427.99 146.209H513.989C514.695 146.209 515.372 146.49 515.871 146.99C516.371 147.49 516.651 148.168 516.651 148.875C516.651 149.583 516.371 150.261 515.871 150.761C515.372 151.261 514.695 151.542 513.989 151.542Z" fill="#60FC54"/>
<path d="M483.234 162.495H428.072C427.366 162.495 426.689 162.214 426.19 161.714C425.69 161.214 425.41 160.535 425.41 159.828C425.41 159.121 425.69 158.443 426.19 157.943C426.689 157.443 427.366 157.162 428.072 157.162H483.234C483.94 157.162 484.617 157.443 485.116 157.943C485.616 158.443 485.896 159.121 485.896 159.828C485.896 160.535 485.616 161.214 485.116 161.714C484.617 162.214 483.94 162.495 483.234 162.495Z" fill="#60FC54"/>
<path d="M461.243 174.022H428.072C427.362 174.011 426.685 173.721 426.187 173.214C425.689 172.708 425.41 172.025 425.41 171.314C425.41 170.607 425.69 169.929 426.19 169.429C426.689 168.929 427.366 168.648 428.072 168.648H461.243C461.949 168.648 462.626 168.929 463.125 169.429C463.624 169.929 463.905 170.607 463.905 171.314C463.905 172.025 463.626 172.708 463.128 173.214C462.63 173.721 461.953 174.011 461.243 174.022Z" fill="#60FC54"/>
<path d="M479.712 174.022H470.949C470.239 174.011 469.562 173.721 469.064 173.214C468.566 172.708 468.287 172.025 468.287 171.314C468.297 170.614 468.583 169.946 469.081 169.455C469.579 168.964 470.25 168.689 470.949 168.689H479.63C480.336 168.689 481.013 168.97 481.513 169.47C482.012 169.97 482.292 170.648 482.292 171.355C482.282 172.045 482.01 172.706 481.53 173.201C481.051 173.697 480.401 173.99 479.712 174.022Z" fill="#60FC54"/>
<path d="M503.71 174.022H491.916C491.199 174.022 490.512 173.736 490.005 173.229C489.498 172.721 489.213 172.032 489.213 171.314C489.213 170.961 489.283 170.611 489.42 170.284C489.556 169.958 489.756 169.662 490.007 169.414C490.259 169.166 490.557 168.97 490.885 168.839C491.212 168.707 491.563 168.642 491.916 168.648H503.71C504.416 168.648 505.093 168.929 505.592 169.429C506.092 169.929 506.372 170.607 506.372 171.314C506.372 172.025 506.093 172.708 505.595 173.214C505.097 173.721 504.42 174.011 503.71 174.022Z" fill="#60FC54"/>
<path d="M513.989 200.235H427.99C427.335 200.153 426.733 199.835 426.297 199.341C425.86 198.846 425.619 198.208 425.619 197.548C425.619 196.887 425.86 196.249 426.297 195.755C426.733 195.26 427.335 194.942 427.99 194.861H513.989C514.369 194.814 514.755 194.848 515.121 194.961C515.487 195.075 515.824 195.265 516.111 195.519C516.398 195.773 516.628 196.085 516.785 196.435C516.943 196.785 517.024 197.164 517.024 197.548C517.024 197.931 516.943 198.31 516.785 198.66C516.628 199.01 516.398 199.322 516.111 199.576C515.824 199.83 515.487 200.02 515.121 200.134C514.755 200.247 514.369 200.282 513.989 200.235Z" fill="#60FC54"/>
<path d="M483.234 211.187H428.072C427.362 211.177 426.685 210.887 426.187 210.38C425.689 209.873 425.41 209.191 425.41 208.48C425.41 207.773 425.69 207.094 426.19 206.594C426.689 206.094 427.366 205.813 428.072 205.813H483.234C483.94 205.813 484.617 206.094 485.116 206.594C485.616 207.094 485.896 207.773 485.896 208.48C485.896 209.191 485.617 209.873 485.119 210.38C484.621 210.887 483.944 211.177 483.234 211.187Z" fill="#60FC54"/>
<path d="M461.243 222.673H428.072C427.366 222.673 426.689 222.392 426.19 221.892C425.69 221.392 425.41 220.714 425.41 220.007C425.41 219.3 425.69 218.622 426.19 218.122C426.689 217.621 427.366 217.341 428.072 217.341H461.243C461.949 217.341 462.626 217.621 463.125 218.122C463.624 218.622 463.905 219.3 463.905 220.007C463.905 220.714 463.624 221.392 463.125 221.892C462.626 222.392 461.949 222.673 461.243 222.673Z" fill="#60FC54"/>
<path d="M479.712 222.673H470.949C470.243 222.673 469.565 222.392 469.066 221.892C468.567 221.392 468.287 220.714 468.287 220.007C468.287 219.3 468.567 218.622 469.066 218.122C469.565 217.621 470.243 217.341 470.949 217.341H479.63C480.336 217.341 481.013 217.621 481.513 218.122C482.012 218.622 482.292 219.3 482.292 220.007C482.292 220.714 482.012 221.392 481.513 221.892C481.013 222.392 480.336 222.673 479.63 222.673H479.712Z" fill="#60FC54"/>
<path d="M503.71 222.673H491.916C491.21 222.673 490.533 222.392 490.034 221.892C489.535 221.392 489.254 220.714 489.254 220.007C489.254 219.3 489.535 218.622 490.034 218.122C490.533 217.621 491.21 217.341 491.916 217.341H503.71C504.416 217.341 505.093 217.621 505.592 218.122C506.092 218.622 506.372 219.3 506.372 220.007C506.372 220.714 506.092 221.392 505.592 221.892C505.093 222.392 504.416 222.673 503.71 222.673Z" fill="#60FC54"/>
<path d="M513.989 103.054H427.99C427.28 103.043 426.603 102.753 426.105 102.247C425.607 101.74 425.328 101.058 425.328 100.347C425.328 99.6396 425.608 98.9614 426.108 98.4613C426.607 97.9613 427.284 97.6803 427.99 97.6803H513.989C514.342 97.6749 514.693 97.7398 515.02 97.8714C515.348 98.003 515.646 98.1985 515.898 98.4467C516.149 98.6948 516.349 98.9906 516.485 99.3168C516.622 99.643 516.692 99.9931 516.692 100.347C516.692 101.065 516.407 101.753 515.9 102.261C515.393 102.769 514.706 103.054 513.989 103.054Z" fill="#60FC54"/>
<path d="M483.234 113.802H428.072C427.366 113.802 426.689 113.521 426.19 113.021C425.69 112.521 425.41 111.843 425.41 111.135C425.41 110.428 425.69 109.75 426.19 109.25C426.689 108.75 427.366 108.469 428.072 108.469H483.234C483.94 108.469 484.617 108.75 485.116 109.25C485.616 109.75 485.896 110.428 485.896 111.135C485.896 111.843 485.616 112.521 485.116 113.021C484.617 113.521 483.94 113.802 483.234 113.802Z" fill="#60FC54"/>
<path d="M461.243 125.329H428.072C427.366 125.329 426.689 125.048 426.19 124.548C425.69 124.048 425.41 123.37 425.41 122.663C425.41 121.955 425.69 121.277 426.19 120.777C426.689 120.277 427.366 119.996 428.072 119.996H461.243C461.949 119.996 462.626 120.277 463.125 120.777C463.624 121.277 463.905 121.955 463.905 122.663C463.905 123.37 463.624 124.048 463.125 124.548C462.626 125.048 461.949 125.329 461.243 125.329Z" fill="#60FC54"/>
<path d="M479.712 125.329H470.949C470.243 125.329 469.565 125.048 469.066 124.548C468.567 124.048 468.287 123.37 468.287 122.663C468.287 121.955 468.567 121.277 469.066 120.777C469.565 120.277 470.243 119.996 470.949 119.996H479.63C480.336 119.996 481.013 120.277 481.513 120.777C482.012 121.277 482.292 121.955 482.292 122.663C482.292 123.37 482.012 124.048 481.513 124.548C481.013 125.048 480.336 125.329 479.63 125.329H479.712Z" fill="#60FC54"/>
<path d="M503.71 125.329H491.916C491.21 125.329 490.533 125.048 490.034 124.548C489.535 124.048 489.254 123.37 489.254 122.663C489.254 121.955 489.535 121.277 490.034 120.777C490.533 120.277 491.21 119.996 491.916 119.996H503.71C504.416 119.996 505.093 120.277 505.592 120.777C506.092 121.277 506.372 121.955 506.372 122.663C506.372 123.37 506.092 124.048 505.592 124.548C505.093 125.048 504.416 125.329 503.71 125.329Z" fill="#60FC54"/>
<path d="M97.4658 37.8297C102.057 37.8297 105.779 34.1014 105.779 29.5023C105.779 24.9032 102.057 21.1749 97.4658 21.1749C92.8746 21.1749 89.1526 24.9032 89.1526 29.5023C89.1526 34.1014 92.8746 37.8297 97.4658 37.8297Z" fill="#FF5F57"/>
<path d="M123.47 37.8297C128.062 37.8297 131.784 34.1014 131.784 29.5023C131.784 24.9032 128.062 21.1749 123.47 21.1749C118.879 21.1749 115.157 24.9032 115.157 29.5023C115.157 34.1014 118.879 37.8297 123.47 37.8297Z" fill="#FEBC2E"/>
<path d="M149.434 37.8297C154.025 37.8297 157.747 34.1014 157.747 29.5023C157.747 24.9032 154.025 21.1749 149.434 21.1749C144.843 21.1749 141.121 24.9032 141.121 29.5023C141.121 34.1014 144.843 37.8297 149.434 37.8297Z" fill="#29C940"/>
<path d="M533.974 376.217H78.587C71.7515 376.207 65.1998 373.479 60.3702 368.634C55.5407 363.788 52.8281 357.221 52.8281 350.374V26.3437C52.8281 19.4966 55.5407 12.9294 60.3702 8.08392C65.1998 3.23847 71.7515 0.510868 78.587 0.5L533.974 0.5C540.809 0.510868 547.361 3.23847 552.19 8.08392C557.02 12.9294 559.733 19.4966 559.733 26.3437V350.415C559.722 357.255 557.004 363.812 552.176 368.648C547.348 373.485 540.802 376.207 533.974 376.217ZM78.587 10.4272C74.3799 10.4381 70.3489 12.1198 67.3779 15.1035C64.4069 18.0873 62.7385 22.1295 62.7385 26.3437V350.415C62.7385 354.629 64.4069 358.671 67.3779 361.655C70.3489 364.639 74.3799 366.32 78.587 366.331H533.974C538.181 366.32 542.212 364.639 545.183 361.655C548.154 358.671 549.822 354.629 549.822 350.415V26.3437C549.822 22.1295 548.154 18.0873 545.183 15.1035C542.212 12.1198 538.181 10.4381 533.974 10.4272H78.587Z" fill="#000201"/>
<path d="M170.975 58.6277H60.6909C59.8763 58.6277 59.0951 58.3036 58.5191 57.7266C57.9431 57.1496 57.6195 56.3671 57.6195 55.5511C57.6195 54.7351 57.9431 53.9526 58.5191 53.3756C59.0951 52.7986 59.8763 52.4745 60.6909 52.4745H170.975C171.789 52.4745 172.571 52.7986 173.147 53.3756C173.723 53.9526 174.046 54.7351 174.046 55.5511C174.046 56.3671 173.723 57.1496 173.147 57.7266C172.571 58.3036 171.789 58.6277 170.975 58.6277Z" fill="#000201"/>
<path d="M551.01 58.6277H199.436C198.622 58.6277 197.841 58.3036 197.265 57.7266C196.689 57.1496 196.365 56.3671 196.365 55.5511C196.365 54.7351 196.689 53.9526 197.265 53.3756C197.841 52.7986 198.622 52.4745 199.436 52.4745H551.01C551.824 52.4745 552.606 52.7986 553.182 53.3756C553.758 53.9526 554.081 54.7351 554.081 55.5511C554.081 56.3671 553.758 57.1496 553.182 57.7266C552.606 58.3036 551.824 58.6277 551.01 58.6277Z" fill="#000201"/>
<path opacity="0.45" d="M214.015 259.224H12.9408C7.85197 259.224 3.72662 263.356 3.72662 268.454V411.537C3.72662 416.635 7.85197 420.767 12.9408 420.767H214.015C219.104 420.767 223.23 416.635 223.23 411.537V268.454C223.23 263.356 219.104 259.224 214.015 259.224Z" fill="#F2F4F5"/>
<path d="M221.51 295.036H58.8891C57.9733 294.939 57.1257 294.506 56.5096 293.821C55.8935 293.135 55.5526 292.246 55.5526 291.323C55.5526 290.401 55.8935 289.511 56.5096 288.826C57.1257 288.14 57.9733 287.707 58.8891 287.611H221.51C222.029 287.556 222.554 287.611 223.051 287.773C223.548 287.934 224.005 288.199 224.393 288.549C224.781 288.899 225.092 289.327 225.304 289.805C225.517 290.283 225.626 290.8 225.626 291.323C225.626 291.846 225.517 292.364 225.304 292.842C225.092 293.32 224.781 293.747 224.393 294.098C224.005 294.448 223.548 294.712 223.051 294.874C222.554 295.035 222.029 295.09 221.51 295.036Z" fill="#000201"/>
<path d="M21.2541 279.078C23.2897 279.078 24.9398 277.425 24.9398 275.386C24.9398 273.347 23.2897 271.694 21.2541 271.694C19.2186 271.694 17.5684 273.347 17.5684 275.386C17.5684 277.425 19.2186 279.078 21.2541 279.078Z" fill="#FF5F57"/>
<path d="M32.7207 279.078C34.7562 279.078 36.4063 277.425 36.4063 275.386C36.4063 273.347 34.7562 271.694 32.7207 271.694C30.6851 271.694 29.035 273.347 29.035 275.386C29.035 277.425 30.6851 279.078 32.7207 279.078Z" fill="#FEBC2E"/>
<path d="M44.1873 279.078C46.2228 279.078 47.873 277.425 47.873 275.386C47.873 273.347 46.2228 271.694 44.1873 271.694C42.1517 271.694 40.5016 273.347 40.5016 275.386C40.5016 277.425 42.1517 279.078 44.1873 279.078Z" fill="#29C940"/>
<path d="M182.032 259.265L150.744 420.767H120.809L152.219 259.265H182.032Z" fill="#F2F4F5"/>
<path d="M204.433 259.265L173.022 420.767H160.122L191.574 259.265H204.433Z" fill="#F2F4F5"/>
<path d="M36.8568 295.036H4.99612C4.08036 294.939 3.23271 294.506 2.61662 293.821C2.00052 293.135 1.65961 292.246 1.65961 291.323C1.65961 290.401 2.00052 289.511 2.61662 288.826C3.23271 288.14 4.08036 287.707 4.99612 287.611H36.8568C37.3762 287.556 37.9014 287.611 38.3981 287.773C38.8949 287.934 39.3522 288.199 39.7403 288.549C40.1285 288.899 40.4389 289.327 40.6513 289.805C40.8638 290.283 40.9736 290.8 40.9736 291.323C40.9736 291.846 40.8638 292.364 40.6513 292.842C40.4389 293.32 40.1285 293.747 39.7403 294.098C39.3522 294.448 38.8949 294.712 38.3981 294.874C37.9014 295.035 37.3762 295.09 36.8568 295.036Z" fill="#000201"/>
<path d="M214.015 424.5H12.8999C9.48195 424.489 6.20708 423.124 3.79022 420.703C1.37336 418.282 0.0107993 415.002 0 411.578V268.454C0 265.026 1.35909 261.74 3.77829 259.316C6.19749 256.893 9.47863 255.532 12.8999 255.532H214.015C217.433 255.543 220.708 256.907 223.125 259.328C225.542 261.749 226.904 265.03 226.915 268.454V411.578C226.904 415.002 225.542 418.282 223.125 420.703C220.708 423.124 217.433 424.489 214.015 424.5ZM12.8999 263.039C11.4445 263.039 10.0487 263.618 9.01959 264.649C7.99047 265.68 7.41232 267.078 7.41232 268.536V411.66C7.41232 413.118 7.99047 414.516 9.01959 415.547C10.0487 416.578 11.4445 417.157 12.8999 417.157H214.015C214.736 417.157 215.45 417.015 216.115 416.739C216.781 416.462 217.386 416.058 217.896 415.547C218.405 415.037 218.809 414.431 219.085 413.764C219.361 413.097 219.503 412.382 219.503 411.66V268.454C219.481 267.01 218.894 265.633 217.867 264.62C216.84 263.606 215.457 263.039 214.015 263.039H12.8999Z" fill="#000201"/>
</g>
<defs>
<clipPath id="clip0_6_224">
<rect width="585" height="424" fill="white" transform="translate(0 0.5)"/>
</clipPath>
</defs>
</svg>
