<svg width="393" height="181" viewBox="0 0 393 181" fill="none" xmlns="http://www.w3.org/2000/svg">
<g clip-path="url(#clip0_15_17458)">
<path d="M354.518 139.008L347.588 151.355L316.298 130.92L339.269 95.687C349.515 104.494 344.035 127.107 354.518 139.008Z" fill="#DCF0FF"/>
<path d="M345.185 157.653L312.956 136.633L343.785 89.459C345.212 87.275 347.45 85.7468 350.005 85.2107C352.56 84.6747 355.223 85.1745 357.41 86.6004L388.47 106.858" stroke="#000201" stroke-width="0.14497" stroke-linecap="round" stroke-linejoin="round"/>
<path d="M388.07 106.198C390.018 107.469 391.382 109.461 391.86 111.736C392.339 114.011 391.893 116.383 390.62 118.33L384.169 128.202L369.474 118.618L375.925 108.746C377.197 106.799 379.192 105.437 381.469 104.959C383.747 104.481 386.121 104.927 388.07 106.198Z" fill="#DCF0FF"/>
<path d="M371.417 120.183L384.052 128.424L390.987 117.812C392.126 116.068 392.526 113.944 392.097 111.905C391.669 109.867 390.448 108.083 388.702 106.944" stroke="#000201" stroke-width="0.14497" stroke-linecap="round" stroke-linejoin="round"/>
<path d="M344.279 157.062L375.107 109.888C375.814 108.807 376.727 107.875 377.794 107.146C378.861 106.417 380.062 105.905 381.327 105.64C382.592 105.374 383.897 105.36 385.168 105.599C386.438 105.837 387.649 106.323 388.732 107.029" stroke="#000201" stroke-width="0.14497" stroke-linecap="round" stroke-linejoin="round"/>
<path d="M342.536 106.073L352.09 112.304" stroke="#000201" stroke-width="0.14497" stroke-linecap="round" stroke-linejoin="round"/>
<path d="M344.832 102.56L362.082 113.81" stroke="#000201" stroke-width="0.14497" stroke-linecap="round" stroke-linejoin="round"/>
<path d="M349.423 95.5341L366.673 106.785" stroke="#000201" stroke-width="0.14497" stroke-linecap="round" stroke-linejoin="round"/>
<path d="M347.127 99.0469L353.629 103.288" stroke="#000201" stroke-width="0.14497" stroke-linecap="round" stroke-linejoin="round"/>
<path d="M356.151 104.932L362.652 109.173" stroke="#000201" stroke-width="0.14497" stroke-linecap="round" stroke-linejoin="round"/>
<path d="M286.147 95.8105H338.195L351.096 178.642H255.282" fill="#FFC68D"/>
<path d="M286.145 95.8062L287.908 100.781C299.401 133.209 321.712 160.701 351.095 178.64H255.282" fill="#F7A65C"/>
<path d="M286.147 95.8105H338.195L338.661 101.324H270.714" fill="#FFDCBD"/>
<path d="M316.72 110.735C318.629 110.735 320.176 109.189 320.176 107.282C320.176 105.375 318.629 103.829 316.72 103.829C314.811 103.829 313.264 105.375 313.264 107.282C313.264 109.189 314.811 110.735 316.72 110.735Z" fill="#E28C37"/>
<path d="M317.008 111.337V118.413C317.008 121.205 315.897 123.882 313.921 125.856C311.945 127.831 309.265 128.94 306.47 128.94V128.94C305.087 128.94 303.716 128.667 302.438 128.138C301.16 127.609 299.998 126.834 299.019 125.856C298.041 124.879 297.265 123.718 296.735 122.441C296.206 121.164 295.933 119.795 295.933 118.413V108.231" stroke="#000201" stroke-width="0.14497" stroke-linecap="round" stroke-linejoin="round"/>
<path d="M286.147 95.8105H338.195L351.096 178.642H255.282" stroke="#000201" stroke-width="0.22488" stroke-linecap="round" stroke-linejoin="round"/>
<path d="M305.31 101.156H300.491" stroke="#F2F4F5" stroke-width="0.13158" stroke-linecap="round" stroke-linejoin="round"/>
<path d="M307.901 102.019C308.378 102.019 308.765 101.632 308.765 101.156C308.765 100.679 308.378 100.293 307.901 100.293C307.424 100.293 307.037 100.679 307.037 101.156C307.037 101.632 307.424 102.019 307.901 102.019Z" fill="#F2F4F5"/>
<path d="M316.806 110.735C318.715 110.735 320.262 109.189 320.262 107.282C320.262 105.375 318.715 103.829 316.806 103.829C314.897 103.829 313.35 105.375 313.35 107.282C313.35 109.189 314.897 110.735 316.806 110.735Z" stroke="#000201" stroke-width="0.145" stroke-linecap="round" stroke-linejoin="round"/>
<path d="M43.9502 114.217C40.9561 114.207 38.0263 115.084 35.5312 116.737C33.0361 118.391 31.0878 120.746 29.9328 123.506C28.7777 126.266 28.4678 129.305 29.0421 132.241C29.6164 135.177 31.0492 137.876 33.1593 139.998C35.2694 142.121 37.962 143.57 40.8966 144.163C43.8312 144.757 46.8761 144.467 49.6462 143.332C52.4162 142.196 54.787 140.266 56.4588 137.784C58.1306 135.303 59.0283 132.382 59.0383 129.391C59.0523 127.403 58.6724 125.431 57.9203 123.591C57.1683 121.75 56.0591 120.076 54.6565 118.666C53.254 117.255 51.5859 116.136 49.7485 115.372C47.911 114.609 45.9404 114.216 43.9502 114.217ZM43.9502 137.787C41.7089 137.797 39.5553 136.918 37.961 135.344C36.3666 133.771 35.4617 131.63 35.4442 129.391C35.4442 127.137 36.3404 124.976 37.9357 123.382C39.5309 121.788 41.6945 120.893 43.9505 120.893C46.2066 120.893 48.3702 121.788 49.9654 123.382C51.5607 124.976 52.4569 127.137 52.4569 129.391C52.4392 131.63 51.534 133.771 49.9396 135.344C48.3453 136.918 46.1916 137.797 43.9502 137.787V137.787Z" fill="#DCF0FF"/>
<path d="M44.1802 144.245C52.536 144.245 59.3098 137.478 59.3098 129.13C59.3098 120.782 52.536 114.015 44.1802 114.015C35.8243 114.015 29.0505 120.782 29.0505 129.13C29.0505 137.478 35.8243 144.245 44.1802 144.245Z" stroke="#000201" stroke-width="0.245" stroke-linecap="round" stroke-linejoin="round"/>
<path d="M44.1802 137.6C48.8626 137.6 52.6585 133.808 52.6585 129.13C52.6585 124.452 48.8626 120.66 44.1802 120.66C39.4977 120.66 35.7018 124.452 35.7018 129.13C35.7018 133.808 39.4977 137.6 44.1802 137.6Z" stroke="#000201" stroke-width="0.14497" stroke-linecap="round" stroke-linejoin="round"/>
<path d="M44.1802 144.245C52.536 144.245 59.3098 137.478 59.3098 129.13C59.3098 120.782 52.536 114.015 44.1802 114.015C35.8243 114.015 29.0505 120.782 29.0505 129.13C29.0505 137.478 35.8243 144.245 44.1802 144.245Z" stroke="#000201" stroke-width="0.245" stroke-linecap="round" stroke-linejoin="round"/>
<path d="M44.1802 137.6C48.8626 137.6 52.6585 133.808 52.6585 129.13C52.6585 124.452 48.8626 120.66 44.1802 120.66C39.4977 120.66 35.7018 124.452 35.7018 129.13C35.7018 133.808 39.4977 137.6 44.1802 137.6Z" stroke="#000201" stroke-width="0.14497" stroke-linecap="round" stroke-linejoin="round"/>
<path d="M45.014 103.304H106.009V159.002H64.3432C59.2168 159.002 54.3004 156.968 50.6754 153.347C47.0505 149.725 45.0141 144.814 45.014 139.693V103.304Z" fill="#F2F4F5"/>
<path d="M48.7071 103.304H109.703V159.002H68.0362C62.9098 159.002 57.9934 156.968 54.3685 153.347C50.7436 149.725 48.7071 144.814 48.7071 139.693V103.304Z" fill="#FF4500"/>
<path d="M109.703 159.002L68.9 158.883C66.6983 158.785 64.5461 158.198 62.5991 157.167C60.6521 156.135 58.9589 154.684 57.6421 152.919C56.3252 151.153 55.4176 149.118 54.985 146.959C54.5523 144.8 54.6053 142.572 55.1403 140.436H77.8944L78.1327 104.256L90.0459 102.828L109.703 159.002Z" fill="#BC2800"/>
<path d="M68.2447 103.304H106.009V159.002H64.3432C59.2168 159.002 54.3003 156.968 50.6754 153.347C47.0505 149.725 45.014 144.814 45.014 139.693V103.304H58.3567" stroke="#000201" stroke-width="0.245" stroke-linecap="round" stroke-linejoin="round"/>
<path d="M338.674 158.05H31.5522V179.473H338.674V158.05Z" fill="#F4AD5E"/>
<path d="M338.674 158.05H31.5522V163.188H338.674V158.05Z" fill="#FFC68D"/>
<path d="M338.674 174.117H31.5522V179.255H338.674V174.117Z" fill="#E28C37"/>
<path d="M1.54435 181C2.39727 181 3.0887 180.309 3.0887 179.457C3.0887 178.605 2.39727 177.914 1.54435 177.914C0.691429 177.914 0 178.605 0 179.457C0 180.309 0.691429 181 1.54435 181Z" fill="#000201"/>
<path d="M25.953 179.473H7.23358" stroke="#000201" stroke-width="0.21075" stroke-linecap="round" stroke-linejoin="round"/>
<path d="M368.271 180.249C369.124 180.249 369.815 179.558 369.815 178.706C369.815 177.854 369.124 177.163 368.271 177.163C367.418 177.163 366.727 177.854 366.727 178.706C366.727 179.558 367.418 180.249 368.271 180.249Z" fill="#000201"/>
<path d="M343.863 178.721H362.582" stroke="#000201" stroke-width="0.21075" stroke-linecap="round" stroke-linejoin="round"/>
<path d="M89.0375 86.593V6.70239" stroke="#000201" stroke-width="0.22488" stroke-linecap="round" stroke-linejoin="round"/>
<path d="M290.886 0.950928H86.5559C83.5466 0.950928 81.1071 3.38803 81.1071 6.39435V139.672C81.1071 142.678 83.5466 145.115 86.5559 145.115H290.886C293.895 145.115 296.335 142.678 296.335 139.672V6.39435C296.335 3.38803 293.895 0.950928 290.886 0.950928Z" fill="#536B77"/>
<path d="M296.358 135.914V141.824C296.358 143.633 293.945 145.163 290.842 145.163H86.6043C83.5009 145.163 81.0878 143.633 81.0878 141.824V135.914C81.0878 137.791 83.5009 139.252 86.6043 139.252H290.842C293.945 139.252 296.358 137.791 296.358 135.914Z" fill="#263F47"/>
<path d="M135.315 1.25891H291.348C292.794 1.25891 294.18 1.83241 295.201 2.85325C296.223 3.87409 296.797 5.25865 296.797 6.70233V139.98C296.797 141.424 296.223 142.808 295.201 143.829C294.18 144.85 292.794 145.423 291.348 145.423H87.0184C85.5733 145.423 84.1873 144.85 83.1655 143.829C82.1436 142.808 81.5696 141.424 81.5696 139.98V119.147" stroke="#000201" stroke-width="0.22488" stroke-linecap="round" stroke-linejoin="round"/>
<path d="M81.5696 86.5929V6.70233C81.5696 5.25865 82.1436 3.87409 83.1655 2.85325C84.1873 1.83241 85.5733 1.25891 87.0184 1.25891H103.701" stroke="#000201" stroke-width="0.22488" stroke-linecap="round" stroke-linejoin="round"/>
<path d="M81.5696 108.611V96.0486" stroke="#000201" stroke-width="0.22488" stroke-linecap="round" stroke-linejoin="round"/>
<path d="M287.065 12.1427H92.8047V136.592H287.065V12.1427Z" fill="#DCF0FF"/>
<path d="M287.065 12.1427H92.8047V15.8939H287.065V12.1427Z" fill="#8BD2FC"/>
<path d="M286.653 134.849H93.5645V135.628H286.653V134.849Z" fill="#CFABF4"/>
<path d="M92.6702 71.0794V52.0551" stroke="#000201" stroke-width="0.22488" stroke-linecap="round" stroke-linejoin="round"/>
<path d="M110.982 1.13745H127.598" stroke="#000201" stroke-width="0.22488" stroke-linecap="round" stroke-linejoin="round"/>
<path d="M85.3621 14.3437C85.2802 14.3594 85.196 14.3583 85.1146 14.3406C85.0343 14.3251 84.9578 14.294 84.8895 14.249C84.8212 14.204 84.7625 14.146 84.7167 14.0783C84.6708 14.0106 84.6388 13.9345 84.6224 13.8545C84.606 13.7744 84.6055 13.6919 84.621 13.6117L84.627 13.5844L86.4454 4.9921C86.4798 4.82917 86.5776 4.68658 86.7172 4.59569C86.8569 4.50479 87.027 4.47305 87.1901 4.50743C87.3531 4.54181 87.4959 4.63951 87.5869 4.77902C87.6778 4.91854 87.7096 5.08845 87.6752 5.25137L85.8525 13.84C85.831 13.9636 85.7728 14.0777 85.6852 14.1676C85.5977 14.2575 85.4851 14.3189 85.3621 14.3437Z" fill="#000201"/>
<path d="M89.0892 9.63815C89.0073 9.65394 88.9231 9.65291 88.8416 9.63512C88.6795 9.60382 88.5365 9.50952 88.444 9.37295C88.3515 9.23638 88.317 9.0687 88.3482 8.90675L88.354 8.87883L89.3257 4.2792C89.3601 4.11628 89.4579 3.97369 89.5975 3.88279C89.6667 3.83779 89.744 3.80683 89.8251 3.79169C89.9063 3.77654 89.9896 3.77751 90.0703 3.79454C90.1511 3.81156 90.2277 3.84431 90.2958 3.89091C90.3639 3.93751 90.4221 3.99705 90.4671 4.06613C90.5122 4.13521 90.5432 4.21248 90.5583 4.29353C90.5735 4.37457 90.5725 4.45781 90.5555 4.53848L89.579 9.13497C89.5575 9.25834 89.4993 9.37237 89.4119 9.46214C89.3245 9.55191 89.2121 9.61326 89.0892 9.63815Z" fill="#000201"/>
<path d="M99.658 126.812C99.5761 126.827 99.4918 126.826 99.4104 126.809C99.2483 126.777 99.1052 126.683 99.0127 126.546C98.9202 126.41 98.8857 126.242 98.9169 126.08L98.9228 126.053L100.741 117.461C100.776 117.298 100.873 117.155 101.013 117.064C101.153 116.973 101.323 116.942 101.486 116.976C101.649 117.01 101.792 117.108 101.883 117.248C101.974 117.387 102.005 117.557 101.971 117.72L100.148 126.309C100.127 126.432 100.068 126.546 99.9809 126.636C99.8934 126.725 99.7809 126.787 99.658 126.812Z" fill="#000201"/>
<path d="M103.385 122.106C103.303 122.122 103.219 122.121 103.137 122.103C102.975 122.072 102.832 121.977 102.74 121.841C102.647 121.704 102.613 121.537 102.644 121.375L102.65 121.347L103.621 116.748C103.657 116.586 103.755 116.445 103.895 116.355C104.034 116.266 104.203 116.234 104.365 116.269C104.527 116.303 104.669 116.4 104.76 116.538C104.851 116.676 104.884 116.845 104.851 117.007L103.875 121.603C103.853 121.727 103.795 121.841 103.708 121.93C103.62 122.02 103.508 122.081 103.385 122.106Z" fill="#000201"/>
<path d="M129.99 5.80017H136.089" stroke="#000201" stroke-width="0.14497" stroke-linecap="round" stroke-linejoin="round"/>
<path d="M114.921 5.80017H126.754" stroke="#000201" stroke-width="0.14497" stroke-linecap="round" stroke-linejoin="round"/>
<path d="M269.736 7.10583H275.835" stroke="#000201" stroke-width="0.14497" stroke-linecap="round" stroke-linejoin="round"/>
<path d="M254.666 7.10583H266.5" stroke="#000201" stroke-width="0.14497" stroke-linecap="round" stroke-linejoin="round"/>
<path d="M58.7047 144.012H315.972C315.972 147.798 314.466 151.43 311.786 154.107C309.106 156.784 305.472 158.288 301.682 158.288H72.9948C69.2049 158.288 65.5702 156.784 62.8903 154.107C60.2104 151.429 58.7048 147.798 58.7047 144.012Z" fill="#E0E3E8"/>
<path d="M312.999 151.147C312.315 153.423 310.853 155.385 308.868 156.694C306.883 158.002 304.501 158.572 302.138 158.305H73.4874C70.9281 158.634 68.3304 158.141 66.0704 156.897C63.8104 155.653 62.0054 153.723 60.9166 151.386L312.999 151.147Z" fill="#ABBCD3"/>
<path d="M58.2957 143.432H315.563C315.563 147.218 314.058 150.849 311.378 153.527C308.698 156.204 305.063 157.708 301.273 157.708H72.5858C68.7958 157.708 65.161 156.204 62.4811 153.527C59.8012 150.849 58.2956 147.218 58.2956 143.432V143.432H58.2957Z" stroke="#000201" stroke-width="0.245" stroke-linecap="round" stroke-linejoin="round"/>
<path d="M172.186 151.147H195.774" stroke="#000201" stroke-width="0.14497" stroke-linecap="round" stroke-linejoin="round"/>
<path d="M48.5269 163.584H72.115" stroke="#000201" stroke-width="0.14497" stroke-linecap="round" stroke-linejoin="round"/>
<path d="M186.43 114.253C194.983 114.253 201.917 107.326 201.917 98.7815C201.917 90.2367 194.983 83.3097 186.43 83.3097C177.877 83.3097 170.943 90.2367 170.943 98.7815C170.943 107.326 177.877 114.253 186.43 114.253Z" fill="#8BD2FC"/>
<path d="M186.43 107.032C190.991 107.032 194.688 103.338 194.688 98.7815C194.688 94.225 190.991 90.5312 186.43 90.5312C181.869 90.5312 178.172 94.225 178.172 98.7815C178.172 103.338 181.869 107.032 186.43 107.032Z" fill="#8BD2FC"/>
<path d="M186.43 116.157C194.983 116.157 201.917 109.231 201.917 100.686C201.917 92.1408 194.983 85.2139 186.43 85.2139C177.877 85.2139 170.943 92.1408 170.943 100.686C170.943 109.231 177.877 116.157 186.43 116.157Z" fill="#8BD2FC"/>
<path d="M186.43 108.936C190.991 108.936 194.688 105.242 194.688 100.686C194.688 96.1292 190.991 92.4354 186.43 92.4354C181.869 92.4354 178.172 96.1292 178.172 100.686C178.172 105.242 181.869 108.936 186.43 108.936Z" fill="#8BD2FC"/>
<path d="M186.43 110.207C194.983 110.207 201.917 103.28 201.917 94.735C201.917 86.1901 194.983 79.2632 186.43 79.2632C177.877 79.2632 170.943 86.1901 170.943 94.735C170.943 103.28 177.877 110.207 186.43 110.207Z" fill="#E0E3E8"/>
<path d="M186.43 102.985C190.991 102.985 194.688 99.2915 194.688 94.735C194.688 90.1785 190.991 86.4847 186.43 86.4847C181.869 86.4847 178.172 90.1785 178.172 94.735C178.172 99.2915 181.869 102.985 186.43 102.985Z" fill="#E0E3E8"/>
<path d="M186.43 110.207C194.983 110.207 201.917 103.28 201.917 94.735C201.917 86.1901 194.983 79.2632 186.43 79.2632C177.877 79.2632 170.943 86.1901 170.943 94.735C170.943 103.28 177.877 110.207 186.43 110.207Z" stroke="#000201" stroke-width="0.22488" stroke-linecap="round" stroke-linejoin="round"/>
<path d="M186.43 104.085C190.283 104.085 193.407 100.965 193.407 97.1153C193.407 93.266 190.283 90.1455 186.43 90.1455C182.577 90.1455 179.453 93.266 179.453 97.1153C179.453 100.965 182.577 104.085 186.43 104.085Z" fill="#B6C1D1"/>
<path d="M151.013 83.5691C148.338 88.9356 146.953 94.8512 146.966 100.846H128.568C128.535 92.9378 130.165 85.1107 133.352 77.8715L151.013 83.5691Z" fill="#FF4500"/>
<path d="M164.812 67.9467C158.882 71.8106 154.113 77.21 151.013 83.5691L133.352 77.8714C137.644 67.8202 144.731 59.2093 153.773 53.0594L164.812 67.9467Z" fill="#FF4500"/>
<path d="M186.52 42.9505V61.3302C178.781 61.2948 171.213 63.6015 164.812 67.9467L153.773 53.0594C163.394 46.4171 174.825 42.8883 186.52 42.9505Z" fill="#FF4500"/>
<path d="M219.085 53.0595L208.049 67.9468C201.714 63.6032 194.203 61.2948 186.52 61.3303V42.9506C198.154 42.9157 209.519 46.4437 219.085 53.0595Z" fill="#FF4500"/>
<path d="M239.508 77.8714L221.847 83.5691C218.745 77.2119 213.976 71.8132 208.049 67.9467L219.085 53.0594C228.127 59.2091 235.215 67.82 239.508 77.8714Z" fill="#FF4500"/>
<path d="M244.292 100.846H225.894C225.906 94.8513 224.521 88.936 221.847 83.5691L239.509 77.8715C242.694 85.1111 244.324 92.9379 244.292 100.846Z" fill="#FF4500"/>
<path d="M243.622 101.577H243.319C242.749 95.6021 241.21 89.7595 238.761 84.2784C238.053 82.5587 237.243 80.9401 236.432 79.321C232.049 71.4019 225.877 64.6129 218.408 59.4933C217.496 58.8863 216.584 58.1782 215.573 57.5712C206.552 52.2081 196.249 49.3771 185.751 49.3771C175.253 49.3771 164.95 52.2081 155.929 57.5712C154.916 58.1782 154.005 58.8863 153.093 59.4933C145.597 64.6247 139.422 71.4532 135.069 79.4222C134.179 80.9992 133.368 82.6198 132.639 84.2779C130.176 89.7479 128.669 95.5986 128.183 101.577H127.879C127.832 93.6729 129.455 85.8481 132.639 78.6129C136.955 68.5462 144.049 59.9146 153.093 53.727C160.127 48.8911 168.149 45.6778 176.579 44.3196C185.009 42.9615 193.636 43.4925 201.835 45.8743C210.034 48.2561 217.601 52.429 223.987 58.0911C230.374 63.7532 235.42 70.7629 238.762 78.6129C241.979 85.8414 243.635 93.6663 243.622 101.577Z" fill="#D83300"/>
<path d="M151.013 83.5691C148.338 88.9356 146.953 94.8512 146.966 100.846H128.568C128.535 92.9378 130.165 85.1107 133.352 77.8715L151.013 83.5691Z" stroke="#000201" stroke-width="0.22488" stroke-linecap="round" stroke-linejoin="round"/>
<path d="M164.812 67.9467C158.882 71.8106 154.113 77.21 151.013 83.5691L133.352 77.8714C137.644 67.8202 144.731 59.2093 153.773 53.0594L164.812 67.9467Z" stroke="#000201" stroke-width="0.22488" stroke-linecap="round" stroke-linejoin="round"/>
<path d="M186.52 42.9505V61.3302C178.781 61.2948 171.213 63.6015 164.812 67.9467L153.773 53.0594C163.394 46.4171 174.825 42.8883 186.52 42.9505V42.9505Z" stroke="#000201" stroke-width="0.22488" stroke-linecap="round" stroke-linejoin="round"/>
<path d="M219.085 53.0595L208.049 67.9468C201.714 63.6032 194.203 61.2948 186.52 61.3303V42.9506C198.154 42.9157 209.519 46.4437 219.085 53.0595V53.0595Z" stroke="#000201" stroke-width="0.22488" stroke-linecap="round" stroke-linejoin="round"/>
<path d="M239.508 77.8714L221.847 83.5691C218.745 77.2119 213.976 71.8132 208.049 67.9467L219.085 53.0594C228.127 59.2091 235.215 67.82 239.508 77.8714V77.8714Z" stroke="#000201" stroke-width="0.22488" stroke-linecap="round" stroke-linejoin="round"/>
<path d="M244.292 100.846H225.894C225.906 94.8513 224.521 88.936 221.847 83.5691L239.509 77.8715C242.694 85.1111 244.324 92.9379 244.292 100.846Z" stroke="#000201" stroke-width="0.22488" stroke-linecap="round" stroke-linejoin="round"/>
<path d="M194.352 55.5581L192.763 76.3469L191.183 97.1357L185.482 95.8914L179.781 94.6369L187.062 75.0925L194.352 55.5581Z" fill="#FF4500"/>
<path d="M194.373 55.5885L192.783 76.3773L191.203 97.166L185.502 95.9218L179.801 94.6673L187.082 75.1229L194.373 55.5885Z" stroke="#000201" stroke-width="0.165" stroke-linecap="round" stroke-linejoin="round"/>
<path d="M186.43 101.705C190.283 101.705 193.407 98.5843 193.407 94.735C193.407 90.8857 190.283 87.7653 186.43 87.7653C182.577 87.7653 179.453 90.8857 179.453 94.735C179.453 98.5843 182.577 101.705 186.43 101.705Z" fill="#F2F4F5"/>
<path d="M186.43 101.705C190.283 101.705 193.407 98.5843 193.407 94.735C193.407 90.8857 190.283 87.7653 186.43 87.7653C182.577 87.7653 179.453 90.8857 179.453 94.735C179.453 98.5843 182.577 101.705 186.43 101.705Z" stroke="#000201" stroke-width="0.14497" stroke-linecap="round" stroke-linejoin="round"/>
<path d="M129.806 92.3546L135.524 92.7117" stroke="#000201" stroke-width="0.14497" stroke-linecap="round" stroke-linejoin="round"/>
<path d="M131.444 84.8866L136.567 86.4338" stroke="#000201" stroke-width="0.14497" stroke-linecap="round" stroke-linejoin="round"/>
<path d="M141.012 66.266L145.26 70.1067" stroke="#000201" stroke-width="0.14497" stroke-linecap="round" stroke-linejoin="round"/>
<path d="M146.097 60.8756L149.314 64.446" stroke="#000201" stroke-width="0.14497" stroke-linecap="round" stroke-linejoin="round"/>
<path d="M207.033 47.7224L205.19 53.1421" stroke="#000201" stroke-width="0.14497" stroke-linecap="round" stroke-linejoin="round"/>
<path d="M199.966 45.4819L198.893 50.1642" stroke="#000201" stroke-width="0.14497" stroke-linecap="round" stroke-linejoin="round"/>
<path d="M232.546 66.266L228.298 70.1067" stroke="#000201" stroke-width="0.14497" stroke-linecap="round" stroke-linejoin="round"/>
<path d="M227.461 60.8756L224.245 64.446" stroke="#000201" stroke-width="0.14497" stroke-linecap="round" stroke-linejoin="round"/>
<path d="M243.07 92.3546L237.352 92.7117" stroke="#000201" stroke-width="0.14497" stroke-linecap="round" stroke-linejoin="round"/>
<path d="M241.432 84.8866L236.31 86.4338" stroke="#000201" stroke-width="0.14497" stroke-linecap="round" stroke-linejoin="round"/>
<path opacity="0.6" d="M218.473 135.203H213.704L244.082 10.9457H248.852L218.473 135.203Z" fill="#F2F4F5"/>
<path opacity="0.8" d="M239.556 135.203H224.66L255.039 10.9457H269.934L239.556 135.203Z" fill="#F2F4F5"/>
<path opacity="0.6" d="M199.173 135.203H194.403L224.782 10.9457H229.551L199.173 135.203Z" fill="#F2F4F5"/>
<path d="M92.6751 44.7237V11.1177H286.926V135.567H92.6751V79.7864" stroke="#000201" stroke-width="0.22488" stroke-linecap="round" stroke-linejoin="round"/>
<path d="M166.654 47.5698L168.497 52.9894" stroke="#000201" stroke-width="0.14497" stroke-linecap="round" stroke-linejoin="round"/>
<path d="M173.722 45.3293L174.795 50.0117" stroke="#000201" stroke-width="0.14497" stroke-linecap="round" stroke-linejoin="round"/>
<path d="M102.674 31.7767C104.845 31.7767 106.605 30.0183 106.605 27.8493C106.605 25.6802 104.845 23.9219 102.674 23.9219C100.503 23.9219 98.7426 25.6802 98.7426 27.8493C98.7426 30.0183 100.503 31.7767 102.674 31.7767Z" fill="#F2F4F5"/>
<path d="M109.406 37.2118C110.864 37.2118 112.046 36.031 112.046 34.5744C112.046 33.1178 110.864 31.937 109.406 31.937C107.948 31.937 106.766 33.1178 106.766 34.5744C106.766 36.031 107.948 37.2118 109.406 37.2118Z" fill="#F2F4F5"/>
<path d="M102.365 36.3475C103.247 36.3475 103.962 35.6332 103.962 34.752C103.962 33.8708 103.247 33.1565 102.365 33.1565C101.483 33.1565 100.768 33.8708 100.768 34.752C100.768 35.6332 101.483 36.3475 102.365 36.3475Z" fill="#F2F4F5"/>
<path d="M31.7905 166.024C57.2348 170.037 83.0069 171.591 108.75 170.666C145.204 168.523 169.505 164.596 206.319 164.596C249.563 164.596 280.776 170.666 338.317 171.38" stroke="#FFDCC0" stroke-width="0.15" stroke-miterlimit="10"/>
<path d="M337.602 166.084C280.061 166.798 248.848 172.868 205.604 172.868C189.772 172.676 173.97 171.431 158.303 169.143C116.324 164.174 73.8761 164.686 32.0292 170.666V170.666" stroke="#FFDCC0" stroke-width="0.15" stroke-miterlimit="10"/>
<path d="M46.8034 158.045H338.671V179.471H31.5533V158.045H36.5556" stroke="#000201" stroke-width="0.22488" stroke-linecap="round" stroke-linejoin="round"/>
<path d="M77.12 165.133C77.9762 165.133 78.6703 164.44 78.6703 163.584C78.6703 162.729 77.9762 162.036 77.12 162.036C76.2638 162.036 75.5697 162.729 75.5697 163.584C75.5697 164.44 76.2638 165.133 77.12 165.133Z" fill="#000201"/>
<path d="M41.4555 159.673C42.3117 159.673 43.0058 158.98 43.0058 158.124C43.0058 157.269 42.3117 156.576 41.4555 156.576C40.5993 156.576 39.9052 157.269 39.9052 158.124C39.9052 158.98 40.5993 159.673 41.4555 159.673Z" fill="#000201"/>
<path d="M63.4795 105.091C64.3357 105.091 65.0298 104.397 65.0298 103.542C65.0298 102.687 64.3357 101.993 63.4795 101.993C62.6233 101.993 61.9292 102.687 61.9292 103.542C61.9292 104.397 62.6233 105.091 63.4795 105.091Z" fill="#000201"/>
<path d="M77.5966 150.791H87.0675" stroke="#F2F4F5" stroke-width="0.25" stroke-linecap="round" stroke-linejoin="round"/>
<path d="M72.5037 152.486C73.4413 152.486 74.2013 151.727 74.2013 150.79C74.2013 149.854 73.4413 149.094 72.5037 149.094C71.5661 149.094 70.806 149.854 70.806 150.79C70.806 151.727 71.5661 152.486 72.5037 152.486Z" fill="#F2F4F5"/>
<path d="M332.38 75.5264L308.786 87.9395C308.482 88.0993 308.127 88.1321 307.799 88.0305C307.471 87.9289 307.197 87.7013 307.037 87.3977L288.745 52.6984C288.53 52.2911 288.399 51.8449 288.36 51.3862C288.321 50.9275 288.374 50.4656 288.516 50.0277L294.21 32.5101L312.494 37.4028C312.953 37.5258 313.383 37.7423 313.754 38.0389C314.126 38.3354 314.432 38.7056 314.654 39.126L332.922 73.7791C333.001 73.9294 333.05 74.0938 333.065 74.263C333.081 74.4321 333.063 74.6027 333.013 74.7649C332.963 74.9272 332.881 75.0779 332.772 75.2086C332.663 75.3393 332.53 75.4472 332.38 75.5264Z" fill="#FF4500"/>
<path d="M302.238 51.2293C304.613 51.2293 306.537 49.3066 306.537 46.9348C306.537 44.563 304.613 42.6403 302.238 42.6403C299.864 42.6403 297.94 44.563 297.94 46.9348C297.94 49.3066 299.864 51.2293 302.238 51.2293Z" fill="#FF4500"/>
<path d="M293.79 34.5546L293.17 51.7839C293.151 52.2739 293.231 52.7628 293.405 53.2215C293.578 53.6802 293.842 54.0995 294.181 54.4545L320.813 82.3425L318.202 83.7123L291.137 55.1877C290.799 54.8325 290.535 54.4132 290.361 53.9545C290.188 53.4959 290.108 53.0071 290.126 52.5171L291.552 41.4415L293.79 34.5546Z" fill="#D83300"/>
<path d="M332.38 75.5264L308.786 87.9395C308.482 88.0993 308.127 88.1321 307.799 88.0305C307.471 87.9289 307.197 87.7013 307.037 87.3977L288.745 52.6984C288.53 52.2911 288.399 51.8449 288.36 51.3862C288.321 50.9275 288.374 50.4656 288.516 50.0277L294.21 32.5101L312.494 37.4028C312.953 37.5258 313.383 37.7423 313.754 38.0389C314.126 38.3354 314.432 38.7056 314.654 39.126L332.922 73.7791C333.001 73.9294 333.05 74.0938 333.065 74.263C333.081 74.4321 333.063 74.6027 333.013 74.7649C332.963 74.9272 332.881 75.0779 332.772 75.2086C332.663 75.3393 332.53 75.4472 332.38 75.5264V75.5264Z" stroke="#000201" stroke-width="0.22488" stroke-linecap="round" stroke-linejoin="round"/>
<path d="M302.238 51.2293C304.613 51.2293 306.537 49.3066 306.537 46.9348C306.537 44.563 304.613 42.6403 302.238 42.6403C299.864 42.6403 297.94 44.563 297.94 46.9348C297.94 49.3066 299.864 51.2293 302.238 51.2293Z" stroke="#000201" stroke-width="0.22488" stroke-linecap="round" stroke-linejoin="round"/>
<path d="M344.988 64.2213L324.67 83.5856C324.54 83.7091 324.387 83.8059 324.22 83.8704C324.053 83.935 323.875 83.966 323.696 83.9618C323.517 83.9576 323.341 83.9182 323.177 83.8459C323.013 83.7736 322.866 83.6697 322.742 83.5403L294.206 53.6583C293.871 53.3075 293.61 52.8933 293.438 52.44C293.266 51.9867 293.186 51.5036 293.204 51.0191L293.92 31.6365L313.85 31.3299C314.351 31.3222 314.848 31.4181 315.31 31.6115C315.772 31.8049 316.189 32.0916 316.535 32.4537L345.033 62.2956C345.157 62.425 345.253 62.5774 345.318 62.7443C345.383 62.9111 345.414 63.089 345.409 63.2678C345.405 63.4466 345.366 63.6229 345.293 63.7865C345.221 63.9501 345.117 64.0978 344.988 64.2213Z" fill="#FF4500"/>
<path d="M306.211 48.4589C308.712 48.4589 310.739 46.4341 310.739 43.9364C310.739 41.4386 308.712 39.4138 306.211 39.4138C303.711 39.4138 301.684 41.4386 301.684 43.9364C301.684 46.4341 303.711 48.4589 306.211 48.4589Z" fill="#FF4500"/>
<path d="M345.753 64.3557L325.399 83.7788C325.269 83.9035 325.114 84.0001 324.945 84.0629C324.776 84.1256 324.596 84.1531 324.416 84.1436C324.235 84.1341 324.059 84.0879 323.898 84.0078C323.736 83.9277 323.592 83.8153 323.476 83.6777L307.274 66.6825C312.638 65.7987 317.667 63.4926 321.835 60.0049C326.003 56.5172 329.158 51.9758 330.969 46.8547L345.855 62.4337C346.086 62.7068 346.204 63.0577 346.185 63.4149C346.166 63.772 346.012 64.1085 345.753 64.3557Z" fill="#D83300"/>
<path d="M327.783 44.2316L345.033 62.2956C345.157 62.425 345.253 62.5775 345.318 62.7443C345.383 62.9111 345.414 63.089 345.41 63.2679C345.405 63.4467 345.366 63.6229 345.294 63.7865C345.221 63.9502 345.117 64.0979 344.988 64.2214L324.67 83.5856C324.54 83.7091 324.387 83.8059 324.22 83.8704C324.053 83.935 323.875 83.966 323.696 83.9618C323.517 83.9576 323.341 83.9182 323.177 83.8459C323.013 83.7736 322.866 83.6697 322.742 83.5403L294.206 53.6583C293.871 53.3075 293.61 52.8933 293.438 52.44C293.266 51.9867 293.186 51.5036 293.204 51.0191L293.92 31.6365L313.85 31.3299C314.351 31.3222 314.848 31.4181 315.31 31.6115C315.772 31.8049 316.189 32.0916 316.535 32.4537L321.161 37.1327" stroke="#000201" stroke-width="0.22488" stroke-linecap="round" stroke-linejoin="round"/>
<path d="M306.047 48.2867C308.547 48.2867 310.574 46.2619 310.574 43.7641C310.574 41.2664 308.547 39.2416 306.047 39.2416C303.547 39.2416 301.52 41.2664 301.52 43.7641C301.52 46.2619 303.547 48.2867 306.047 48.2867Z" fill="#F2F4F5"/>
<path d="M306.211 48.4589C308.712 48.4589 310.739 46.4341 310.739 43.9364C310.739 41.4386 308.712 39.4138 306.211 39.4138C303.711 39.4138 301.684 41.4386 301.684 43.9364C301.684 46.4341 303.711 48.4589 306.211 48.4589Z" stroke="#000201" stroke-width="0.14497" stroke-linecap="round" stroke-linejoin="round"/>
<path d="M303.633 47.1326L305.926 45.2768C307.244 44.21 308.294 42.8498 308.992 41.305C309.691 39.7602 310.017 38.0737 309.947 36.3803C309.876 34.6868 309.41 33.0333 308.585 31.5521C307.76 30.0708 306.6 28.8027 305.198 27.8493V27.8493C303.971 27.0156 302.587 26.4414 301.13 26.1619C299.673 25.8824 298.175 25.9036 296.726 26.2241" stroke="#000201" stroke-width="0.14497" stroke-linecap="round" stroke-linejoin="round"/>
<path d="M308.582 58.3259L308.529 58.271C308.493 58.233 308.468 58.1908 308.453 58.1444C308.439 58.0973 308.438 58.0499 308.45 58.0022C308.462 57.9537 308.49 57.9088 308.533 57.8674C308.577 57.8254 308.623 57.7998 308.672 57.7906C308.72 57.7812 308.766 57.7851 308.812 57.8024C308.858 57.8194 308.898 57.8469 308.935 57.8848L308.987 57.9397C309.023 57.9777 309.049 58.0201 309.064 58.0668C309.079 58.1129 309.08 58.16 309.068 58.2081C309.057 58.2556 309.029 58.3 308.986 58.3414C308.941 58.3834 308.895 58.4093 308.847 58.4191C308.798 58.4286 308.751 58.425 308.705 58.4083C308.659 58.3914 308.618 58.3639 308.582 58.3259ZM308.633 58.172L308.686 58.2269C308.716 58.2585 308.75 58.2797 308.789 58.2905C308.828 58.301 308.865 58.2888 308.902 58.2539C308.938 58.2199 308.951 58.1836 308.942 58.145C308.933 58.1057 308.913 58.0702 308.883 58.0387L308.831 57.9838C308.801 57.9523 308.767 57.9309 308.729 57.9197C308.691 57.9082 308.653 57.92 308.617 57.9549C308.581 57.9888 308.567 58.0258 308.576 58.0658C308.584 58.1051 308.603 58.1405 308.633 58.172ZM307.494 58.2247L307.441 58.1698C307.405 58.1318 307.379 58.0896 307.365 58.0432C307.35 57.9962 307.349 57.9488 307.361 57.901C307.373 57.8525 307.401 57.8076 307.445 57.7662C307.489 57.7242 307.535 57.6986 307.583 57.6895C307.631 57.68 307.678 57.6839 307.724 57.7012C307.769 57.7182 307.81 57.7457 307.846 57.7836L307.899 57.8386C307.935 57.8765 307.961 57.9189 307.975 57.9656C307.99 58.0117 307.992 58.0588 307.98 58.1069C307.968 58.1544 307.941 58.1988 307.897 58.2402C307.853 58.2822 307.807 58.3082 307.759 58.318C307.71 58.3274 307.663 58.3238 307.617 58.3072C307.571 58.2902 307.53 58.2627 307.494 58.2247ZM307.545 58.0708L307.597 58.1258C307.627 58.1573 307.662 58.1785 307.701 58.1893C307.739 58.1999 307.777 58.1877 307.814 58.1527C307.849 58.1188 307.863 58.0825 307.854 58.0438C307.845 58.0045 307.825 57.9691 307.795 57.9375L307.742 57.8826C307.712 57.8511 307.678 57.8297 307.64 57.8186C307.602 57.8071 307.565 57.8188 307.528 57.8537C307.493 57.8877 307.479 57.9246 307.487 57.9646C307.496 58.0039 307.515 58.0393 307.545 58.0708ZM308.288 58.9791L308.01 57.2546L308.126 57.144L308.404 58.8685L308.288 58.9791Z" fill="#F2F4F5"/>
<path d="M324.14 42.2515C324.996 42.2515 325.69 41.5581 325.69 40.7027C325.69 39.8473 324.996 39.1539 324.14 39.1539C323.283 39.1539 322.589 39.8473 322.589 40.7027C322.589 41.5581 323.283 42.2515 324.14 42.2515Z" fill="#000201"/>
<path d="M189.163 7.78897C190.069 7.78897 190.802 7.05588 190.802 6.15157C190.802 5.24725 190.069 4.51416 189.163 4.51416C188.258 4.51416 187.524 5.24725 187.524 6.15157C187.524 7.05588 188.258 7.78897 189.163 7.78897Z" stroke="#000201" stroke-width="0.14497" stroke-linecap="round" stroke-linejoin="round"/>
</g>
<defs>
<clipPath id="clip0_15_17458">
<rect width="393" height="181" fill="white"/>
</clipPath>
</defs>
</svg>
