<svg width="103" height="103" viewBox="0 0 103 103" fill="none" xmlns="http://www.w3.org/2000/svg">
<path d="M40.9039 35.4062H25.75C20.628 35.4062 15.7158 37.441 12.094 41.0627C8.4722 44.6845 6.4375 49.5968 6.4375 54.7187C6.4375 59.8407 8.4722 64.753 12.094 68.3747C15.7158 71.9965 20.628 74.0312 25.75 74.0312H45.0625C48.153 74.0329 51.1987 73.2928 53.9439 71.8732C56.689 70.4535 59.0533 68.3959 60.8383 65.873C62.6232 63.3501 63.7767 60.4356 64.2017 57.3745C64.6266 54.3134 64.3108 51.195 63.2806 48.2812H57.9375C57.3839 48.2812 56.8431 48.3456 56.3281 48.4808C57.4138 50.4411 57.9691 52.6507 57.939 54.8914C57.909 57.132 57.2947 59.326 56.1568 61.2564C55.019 63.1869 53.397 64.7869 51.4512 65.8984C49.5055 67.0098 47.3033 67.5942 45.0625 67.5937H25.75C22.3353 67.5937 19.0605 66.2373 16.646 63.8227C14.2315 61.4082 12.875 58.1334 12.875 54.7187C12.875 51.3041 14.2315 48.0293 16.646 45.6147C19.0605 43.2002 22.3353 41.8437 25.75 41.8437H35.6316C37.0349 39.4232 38.8181 37.2474 40.9103 35.4062H40.9039Z" fill="#F2F4F5"/>
<path d="M57.9374 35.4062C54.8469 35.4046 51.8012 36.1447 49.056 37.5643C46.3109 38.9839 43.9465 41.0416 42.1616 43.5645C40.3766 46.0874 39.2232 49.0019 38.7982 52.063C38.3732 55.1241 38.6891 58.2425 39.7193 61.1562H46.7876C45.6576 59.199 45.0627 56.9788 45.0627 54.7188C45.0627 52.4588 45.6576 50.2386 46.7875 48.2814C47.9175 46.3242 49.5428 44.6988 51.5 43.5688C53.4572 42.4388 55.6774 41.8438 57.9374 41.8437H77.2499C80.6645 41.8437 83.9393 43.2002 86.3539 45.6147C88.7684 48.0293 90.1249 51.3041 90.1249 54.7188C90.1249 58.1334 88.7684 61.4082 86.3539 63.8227C83.9393 66.2373 80.6645 67.5938 77.2499 67.5938H67.3683C65.9677 70.0104 64.185 72.1844 62.0896 74.0312H77.2499C79.786 74.0312 82.2973 73.5317 84.6404 72.5612C86.9836 71.5906 89.1125 70.1681 90.9059 68.3748C92.6992 66.5814 94.1218 64.4524 95.0923 62.1093C96.0628 59.7662 96.5624 57.2549 96.5624 54.7188C96.5624 52.1826 96.0628 49.6713 95.0923 47.3282C94.1218 44.9851 92.6992 42.8561 90.9059 41.0627C89.1125 39.2694 86.9836 37.8469 84.6404 36.8763C82.2973 35.9058 79.786 35.4062 77.2499 35.4062H57.9374Z" fill="#F2F4F5"/>
</svg>
