<svg width="226" height="107" viewBox="0 0 226 107" fill="none" xmlns="http://www.w3.org/2000/svg">
<path d="M65.8465 22.4C65.8465 26.5333 64.7132 30.2333 62.4465 33.5C60.1798 36.7 57.0798 39.3666 53.1465 41.5C55.6798 43.2333 57.6798 45.3666 59.1465 47.9C60.6798 50.3666 61.4465 53.1 61.4465 56.1C61.4465 59.7 60.3465 63.2666 58.1465 66.8C56.0132 70.2666 53.1465 73.3666 49.5465 76.1C45.9465 78.7666 41.8465 80.9333 37.2465 82.6C32.6465 84.2667 27.9465 85.1 23.1465 85.1C17.9465 85.1 13.3798 84.1 9.4465 82.1C5.57983 80.1666 2.5465 77.4 0.346497 73.8C1.01316 71.8 1.87983 69.3333 2.9465 66.4C4.07983 63.4 5.31316 60.2666 6.6465 57C7.97983 53.6666 9.31316 50.3666 10.6465 47.1C12.0465 43.8333 13.3465 40.9 14.5465 38.3C17.0798 32.6333 19.3465 27.9333 21.3465 24.2C23.3465 20.4666 25.1798 17.5 26.8465 15.3C23.1798 16.4333 19.8465 17.7333 16.8465 19.2C13.8465 20.6 11.6465 21.9666 10.2465 23.3C9.6465 22.9 9.01316 22.3 8.3465 21.5C7.7465 20.7 7.1465 19.8333 6.5465 18.9C6.01316 17.9 5.5465 16.9 5.1465 15.9C4.81316 14.9 4.61316 14 4.5465 13.2C6.27983 12 8.51316 10.8666 11.2465 9.79998C14.0465 8.66665 17.0798 7.69998 20.3465 6.89998C23.6132 6.09998 26.9465 5.46664 30.3465 4.99998C33.8132 4.53331 37.1132 4.29998 40.2465 4.29998C48.2465 4.29998 54.5132 5.89998 59.0465 9.09998C63.5798 12.3 65.8465 16.7333 65.8465 22.4ZM27.7465 46.3C26.4798 45.7 25.3132 44.8 24.2465 43.6C22.7132 47 21.2465 50.3333 19.8465 53.6C18.5132 56.8666 17.3132 59.9 16.2465 62.7C15.1798 65.5 14.3132 67.9333 13.6465 70C12.9798 72.0666 12.6132 73.5666 12.5465 74.5C13.4798 75.0333 14.5798 75.4333 15.8465 75.7C17.1798 75.9666 18.8132 76.1 20.7465 76.1C25.2798 76.1 29.6132 75.4666 33.7465 74.2C37.8798 72.9333 41.5132 71.2333 44.6465 69.1C47.7798 66.9 50.2798 64.4 52.1465 61.6C54.0132 58.8 54.9465 55.8666 54.9465 52.8C54.9465 48.4 53.0465 45.2333 49.2465 43.3C44.0465 45.4333 38.1798 46.5 31.6465 46.5C30.7132 46.5 29.9798 46.5 29.4465 46.5C28.9798 46.5 28.4132 46.4333 27.7465 46.3ZM47.1465 11.6C45.7465 11.6 44.2465 11.7 42.6465 11.9C41.1132 12.0333 39.4798 12.2666 37.7465 12.6C38.0132 12.8666 38.2132 13.1666 38.3465 13.5C38.5465 13.7666 38.7132 14.0666 38.8465 14.4C38.2465 15.2 37.5132 16.3666 36.6465 17.9C35.7798 19.4333 34.8132 21.2333 33.7465 23.3C32.6798 25.3 31.5465 27.5333 30.3465 30C29.2132 32.4666 28.0465 35 26.8465 37.6C27.9798 37.3333 29.3465 37.1333 30.9465 37C32.6132 36.8 34.2465 36.7 35.8465 36.7C36.7132 36.7 37.5465 36.7333 38.3465 36.8C39.2132 36.8666 40.0465 36.9666 40.8465 37.1C44.0465 36.5666 46.9132 35.8 49.4465 34.8C52.0465 33.7333 54.2798 32.5333 56.1465 31.2C58.0132 29.8 59.4465 28.2666 60.4465 26.6C61.4465 24.9333 61.9465 23.1666 61.9465 21.3C61.9465 18.1 60.6798 15.7 58.1465 14.1C55.6132 12.4333 51.9465 11.6 47.1465 11.6Z" fill="#045C94"/>
<path d="M65.2402 75.5C65.5736 73.5666 66.1402 71.0333 66.9402 67.9C67.8069 64.7 60.2902 60.5333 61.4235 57C62.5569 53.4 72.2736 50.6 73.5402 47C74.8069 43.4 76.0403 40.1666 77.2402 37.3C78.1069 35.2333 78.8736 33.6333 79.5402 32.5C80.2069 31.3 80.9402 30.3 81.7402 29.5C82.6736 29.6333 83.6403 29.8666 84.6403 30.2C85.6403 30.5333 86.6069 30.9333 87.5402 31.4C88.4736 31.8666 89.3069 32.3666 90.0402 32.9C90.7736 33.3666 91.3402 33.8333 91.7402 34.3C89.9402 36.4333 88.3402 38.8666 86.9402 41.6C85.6069 44.3333 84.2402 47.8333 82.8402 52.1C86.4402 48.9 89.6069 45.8333 92.3402 42.9C95.1402 39.9666 97.7403 36.7 100.14 33.1C100.54 32.7666 101.24 32.6 102.24 32.6C103.174 32.6 104.074 32.7666 104.94 33.1C105.807 33.3666 106.407 33.7666 106.74 34.3C105.54 37.5 104.94 40.6666 104.94 43.8C104.94 46.7333 105.374 48.9333 106.24 50.4C106.174 50.8 105.707 51.5666 104.84 52.7C104.04 53.8333 103.14 54.9 102.14 55.9C100.34 54.9666 98.7402 53.7 97.3402 52.1C95.9402 50.4333 94.9069 48.6333 94.2402 46.7C91.1069 48.9 88.4402 51.0666 86.2402 53.2C84.0402 55.2666 82.1402 57.6 80.5402 60.2C79.0069 62.7333 77.6736 65.6666 76.5402 69C75.4736 72.3333 74.4402 76.3 73.4402 80.9C72.8402 80.8333 72.1069 80.6 71.2402 80.2C70.4402 79.8666 69.6069 79.4333 68.7402 78.9C67.9402 78.3666 67.2069 77.8 66.5402 77.2C65.8736 76.6 65.4402 76.0333 65.2402 75.5Z" fill="#045C94"/>
<path d="M108.072 70.8C108.072 70.2 108.106 69.4666 108.172 68.6C108.306 67.6666 108.506 66.4667 108.772 65C109.039 63.4667 101.84 59.1333 102.24 57C102.707 54.8666 110.806 54.8 111.472 51.8C111.606 51.1333 111.906 50.0666 112.372 48.6C112.839 47.1333 113.439 45.6 114.172 44C114.972 42.3333 115.906 40.7333 116.972 39.2C118.106 37.6666 119.439 36.5333 120.972 35.8C122.106 36.0666 123.606 36.7666 125.472 37.9C127.339 38.9666 128.939 40.4666 130.272 42.4C128.739 44.1333 127.439 45.8666 126.372 47.6C125.372 49.3333 124.439 51.1333 123.572 53C122.772 54.8666 122.006 56.8 121.272 58.8C120.606 60.8 119.839 62.9 118.972 65.1C118.239 66.9667 117.572 68.9 116.972 70.9C116.372 72.8333 116.039 74.5333 115.972 76C115.972 77.2 115.939 78.0333 115.872 78.5C115.872 79.0333 115.706 79.3 115.372 79.3C115.106 79.3 114.572 79.1333 113.772 78.8C112.972 78.4666 112.139 77.9666 111.272 77.3C110.472 76.5666 109.739 75.6666 109.072 74.6C108.406 73.5333 108.072 72.2666 108.072 70.8ZM127.172 27.4C127.172 27 127.272 26.4 127.472 25.6C127.139 25.2666 126.839 24.7666 126.572 24.1C126.372 23.4333 126.272 22.8333 126.272 22.3C126.272 21.7 126.339 20.9 126.472 19.9C126.672 18.8333 126.906 17.7 127.172 16.5C127.439 15.3 127.772 14.0666 128.172 12.8C128.572 11.4666 128.972 10.2666 129.372 9.19998C130.172 9.19998 131.139 9.43331 132.272 9.89997C133.472 10.3 134.672 10.8666 135.872 11.6C137.072 12.2666 138.172 13.0333 139.172 13.9C140.172 14.7 140.939 15.4666 141.472 16.2C140.739 16.9333 139.772 17.9666 138.572 19.3C137.372 20.5666 136.206 21.9333 135.072 23.4C133.939 24.8 132.906 26.1333 131.972 27.4C131.039 28.6666 130.439 29.5666 130.172 30.1C129.372 29.9666 128.672 29.6333 128.072 29.1C127.472 28.5 127.172 27.9333 127.172 27.4Z" fill="#045C94"/>
<path d="M167.405 36.1C167.138 40.2333 166.405 43.8 165.205 46.8C164.005 49.7333 162.272 52.3333 160.005 54.6C157.805 56.8 155.105 58.8 151.905 60.6C148.705 62.4 144.972 64.1333 140.705 65.8C140.705 66.2 140.672 66.6333 140.605 67.1C140.605 67.5 140.605 67.9333 140.605 68.4C140.605 69.2666 140.672 70.1666 140.805 71.1C140.938 72.0333 141.172 72.9 141.505 73.7C141.838 74.5 142.305 75.1666 142.905 75.7C143.505 76.1666 144.272 76.4 145.205 76.4C147.005 76.4 148.772 76 150.505 75.2C152.238 74.4 153.872 73.4333 155.405 72.3C157.005 71.1 158.472 69.8333 159.805 68.5C161.205 67.1 162.438 65.8333 163.505 64.7C164.172 65.3 164.738 65.8666 165.205 66.4C162.205 70.4 158.905 73.7333 155.305 76.4C151.772 79 148.405 80.6666 145.205 81.4C140.605 80.8666 137.005 79.2 134.405 76.4C131.872 73.5333 130.605 70.1 130.605 66.1C130.605 63.3667 121.215 59.8 121.948 57C122.748 54.1333 133.572 52.2 134.905 49.6C136.305 46.9333 137.905 44.4333 139.705 42.1C141.572 39.7666 143.538 37.7333 145.605 36C147.738 34.2666 149.905 32.9 152.105 31.9C154.372 30.9 156.605 30.4 158.805 30.4C161.872 30.8 164.738 32.7 167.405 36.1ZM160.505 39.4C158.705 39.6666 156.838 40.4 154.905 41.6C152.972 42.8 151.138 44.4 149.405 46.4C147.738 48.4 146.205 50.7333 144.805 53.4C143.405 56.0666 142.305 58.9333 141.505 62C146.838 59.3333 151.272 56.0666 154.805 52.2C158.338 48.2666 160.238 44 160.505 39.4Z" fill="#045C94"/>
<path d="M176.754 106.4C175.087 105.733 174.087 104.467 173.754 102.6C173.487 100.8 172.354 99.3333 170.354 98.2C170.887 94.8 171.487 91.3666 172.154 87.9C172.82 84.4333 173.654 80.5 174.654 76.1C175.72 71.6333 160.967 59.2666 162.5 53.4C164.1 47.4666 182.154 47.5 184.554 39.1C182.354 39.1 180.62 39.1333 179.354 39.2C178.087 39.2666 176.854 39.4 175.654 39.6C175.387 39.3333 175.154 38.9666 174.954 38.5C174.82 38.0333 174.754 37.6 174.754 37.2C175.42 36.9333 176.787 36.6 178.854 36.2C180.92 35.7333 183.187 35.3333 185.654 35C187.254 29.9333 189.087 25.4 191.154 21.4C193.22 17.3333 195.454 13.8666 197.854 11C200.254 8.13331 202.787 5.93331 205.454 4.39998C208.12 2.86665 210.82 2.09998 213.554 2.09998C214.354 2.09998 215.12 2.16665 215.854 2.29998C216.587 2.36664 217.154 2.39998 217.554 2.39998C218.154 1.93331 218.954 1.53331 219.954 1.19998C220.954 0.799977 221.82 0.599976 222.554 0.599976C223.354 0.599976 224.387 1.03331 225.654 1.89998C225.12 2.83331 224.554 4.09998 223.954 5.69998C223.354 7.29998 222.854 8.86665 222.454 10.4C220.787 15.3333 219.02 18.5333 217.154 20C216.42 20 216.02 19.0333 215.954 17.1C215.887 15.7 215.687 14.3333 215.354 13C215.087 12.4 214.887 11.8666 214.754 11.4C214.687 10.9333 214.654 10.3333 214.654 9.59998C214.654 9.19998 214.687 8.73331 214.754 8.19998C214.82 7.59998 214.954 6.63331 215.154 5.29997C214.02 5.29997 212.754 5.99998 211.354 7.39998C210.02 8.79998 208.587 10.8 207.054 13.4C205.587 15.9333 204.087 18.9666 202.554 22.5C201.02 26.0333 199.554 29.9333 198.154 34.2L206.554 33.9C206.887 34.2333 207.154 35 207.354 36.2C207.62 37.3333 207.787 38.5333 207.854 39.8L196.854 39.2C194.32 46.7333 191.954 53.9333 189.754 60.8C187.554 67.6666 185.587 74 183.854 79.8C182.12 85.6 180.62 90.7666 179.354 95.3C178.154 99.9 177.287 103.6 176.754 106.4Z" fill="#045C94"/>
</svg>
